<svg  height="100%" width="100%" version="1.1" viewBox="0 0 500 500" xmlns="http://www.w3.org/2000/svg">
 <metadata id="metadata7">image/svg+xml</metadata>

 <g>
  <title>background</title>
  <rect x="-1" y="-1" width="502" height="502" id="canvas_background" fill="none"/>
 </g>
 <g>
  <title>Layer 1</title>
  <g stroke="null" id="svg_12">
   <g stroke="null" transform="matrix(0.7887743889734726,0,0,0.8218870787146976,-202.84629217567272,-215.1728496832872) " id="svg_10">
    <title stroke="null" transform="translate(0,3.239999771118164) translate(0,3.239999771118164) translate(0,3.239999771118164) translate(0,3.239999771118164) translate(0,3.239999771118164) translate(0,3.239999771118164) translate(0,3.239999771118164) translate(0,3.239999771118164) translate(0,3.239999771118164) translate(0,3.239999771118164) translate(0,-3.239999771118164) translate(0,-3.239999771118164) translate(0,-3.239999771118164) translate(0,-3.239999771118164) translate(0,-3.239999771118164) translate(0,-3.239999771118164) translate(0,-3.239999771118164) translate(3.239999771118164,0) translate(3.239999771118164,0) translate(25.919998168945312,3.239999771118164) translate(-19.439998626708984,-3.239999771118164) translate(-19.439998626708984,0) translate(-3.239999771118164,0) translate(3.239999771118164,-12.959999084472656) translate(25.919998168945312,9.719999313354492) translate(-38.87999725341797,-9.719999313354492) translate(-93.95999145507812,0) translate(-32.39999771118164,-51.839996337890625) translate(-90.7199935913086,-184.6799774169922) translate(659.9999389648438,0) translate(0,659.9999389648438) ">background</title>
    <rect stroke="null" x="422.479958" y="419.239965" width="302" height="302" id="svg_8" fill="none"/>
   </g>
   <g stroke="null" transform="matrix(0.7887743889734726,0,0,0.8218870787146976,-202.84629217567272,-215.1728496832872) " id="svg_11">
    <title stroke="null" transform="translate(0,3.239999771118164) translate(0,3.239999771118164) translate(0,3.239999771118164) translate(0,3.239999771118164) translate(0,3.239999771118164) translate(0,3.239999771118164) translate(0,3.239999771118164) translate(0,3.239999771118164) translate(0,3.239999771118164) translate(0,3.239999771118164) translate(0,-3.239999771118164) translate(0,-3.239999771118164) translate(0,-3.239999771118164) translate(0,-3.239999771118164) translate(0,-3.239999771118164) translate(0,-3.239999771118164) translate(0,-3.239999771118164) translate(3.239999771118164,0) translate(3.239999771118164,0) translate(25.919998168945312,3.239999771118164) translate(-19.439998626708984,-3.239999771118164) translate(-19.439998626708984,0) translate(-3.239999771118164,0) translate(3.239999771118164,-12.959999084472656) translate(25.919998168945312,9.719999313354492) translate(-38.87999725341797,-9.719999313354492) translate(-93.95999145507812,0) translate(-32.39999771118164,-51.839996337890625) translate(-90.7199935913086,-184.6799774169922) translate(659.9999389648438,0) translate(0,659.9999389648438) ">Layer 1</title>
    <g stroke="null" id="svg_6" transform="rotate(15 573.4799194335934,568.7399291992189) ">
     <path stroke="null" d="m640.113878,614.259835c-63.19576,0 -114.39011,-48.85542 -114.39011,-109.09786c0,-19.83897 5.96983,-38.18684 15.67915,-54.20265c-52.67631,14.49173 -91.41972,60.27071 -91.41972,115.16356c0,66.4801 56.50224,120.39773 126.21123,120.39773c57.5569,0 105.58726,-36.97841 120.7823,-87.18595c-16.8252,9.22929 -36.06105,14.92517 -56.86285,14.92517z" fill="#4c4c4c" id="svg_7"/>
    </g>
   </g>
  </g>
  <path id="path4-4" d="m384.75,330.83c-3.6725,-5.7483 -8.2232,-10.858 -13.652,-15.329c-18.975,-14.972 -39.265,-16.935 -55.806,-15.708c-9.0661,-35.556 -32.072,-55.85 -66.345,-56.203c-9.8998,0 -19.321,1.9959 -28.262,5.9878c-8.9418,3.9918 -16.686,9.1014 -23.233,15.329c-6.5467,6.2273 -11.736,14.051 -15.568,23.472c-4.3146,12.074 -5.3704,18.63 -5.5088,31.096c-12.332,-3.1167 -29.131,-3.906 -39.519,0.23952c-12.455,5.4289 -21.237,14.69 -26.346,27.783c-3.1935,8.7821 -4.1515,17.404 -2.8741,25.867c1.2774,8.4628 4.7104,16.207 10.299,23.233c5.5886,7.0257 12.614,12.135 21.077,15.329c5.908,2.2354 11.736,3.3532 17.484,3.3532l171.97,0c13.732,0 26.346,2.1534 37.843,-5.6706c27.98,-19.739 33.458,-54.513 18.442,-78.779l-0.0011,0.00008z" fill="#ffffff" stroke-width="15" stroke-miterlimit="4" stroke="#969696"/>
 </g>
</svg>