<svg  height="100%" width="100%" version="1.1" viewBox="0 0 500 500" xmlns="http://www.w3.org/2000/svg">
 <metadata id="metadata7">image/svg+xml</metadata>

 <g>
  <title>background</title>
  <rect fill="none" id="canvas_background" height="402" width="582" y="-1" x="-1"/>
 </g>
 <g>
  <title>Layer 1</title>
  <g transform="matrix(1.0294379229886155,0,0,0.9896210301286789,-1610.516242266323,-1631.6749327952668) " stroke="null" id="svg_13">
   <g stroke="null" id="svg_17" transform="matrix(0.7887745323189961,0,0,0.8218870207674094,-420.5523985449994,-436.3512099295475) ">
    <title stroke="null" transform="translate(-1.23153555393219,0) translate(1.23153555393219,0) translate(112.06973266601562,133.86415100097656) translate(-108.37512969970703,-135.10362243652344) translate(-2.46307110786438,9.915863037109375) translate(3.6946067810058594,-9.915863037109375) translate(-7.389213562011719,-2.5043764114379883) translate(-3.6946067810058594,-40.569053649902344) translate(2.46307110786438,55.354286193847656) translate(3.6946067810058594,104.39155578613281) translate(-72.45178985595703,-23.50372314453125) translate(-489.39813232421875,-516.7124633789062) translate(2535.578857421875,0) translate(0,2433.424560546875) ">background</title>
    <rect stroke="null" fill="none" id="svg_18" height="302" width="302" y="2696.991738" x="2672.214277"/>
   </g>
   <g stroke="null" id="svg_14" transform="matrix(0.7887745323189961,0,0,0.8218870207674094,-420.5523985449994,-436.3512099295475) ">
    <title stroke="null" transform="translate(-1.23153555393219,0) translate(1.23153555393219,0) translate(112.06973266601562,133.86415100097656) translate(-108.37512969970703,-135.10362243652344) translate(-2.46307110786438,9.915863037109375) translate(3.6946067810058594,-9.915863037109375) translate(-7.389213562011719,-2.5043764114379883) translate(-3.6946067810058594,-40.569053649902344) translate(2.46307110786438,55.354286193847656) translate(3.6946067810058594,104.39155578613281) translate(-72.45178985595703,-23.50372314453125) translate(-489.39813232421875,-516.7124633789062) translate(2535.578857421875,0) translate(0,2433.424560546875) ">Layer 1</title>
    <g stroke="null" transform="rotate(15 2823.2138671874964,2846.491455078125) " id="svg_15">
     <path stroke="null" id="svg_16" fill="#4c4c4c" d="m2889.848197,2892.011608c-63.19576,0 -114.39011,-48.85542 -114.39011,-109.09786c0,-19.83897 5.96983,-38.18684 15.67915,-54.20265c-52.67631,14.49173 -91.41972,60.27071 -91.41972,115.16356c0,66.4801 56.50224,120.39773 126.21123,120.39773c57.5569,0 105.58726,-36.97841 120.7823,-87.18595c-16.8252,9.22929 -36.06105,14.92517 -56.86285,14.92517z"/>
    </g>
   </g>
  </g>
  <path stroke="null" opacity="0.8" fill="#cccccc" d="m189.626086,51.470022c-8.14913,0 -14.749471,10.252398 -14.749471,22.885456c0,12.633872 6.599607,22.885456 14.749471,22.885456l88.499973,0c8.142417,0 14.74947,-10.252398 14.74947,-22.885456c0,-12.633872 -6.607578,-22.885456 -14.74947,-22.885456l-88.499973,0zm-88.499972,68.659622c-8.14913,0 -14.749471,10.252398 -14.749471,22.885456c0,12.633872 6.600866,22.885456 14.749471,22.885456l176.999945,0c8.142417,0 14.74947,-10.252398 14.74947,-22.885456c0,-12.633872 -6.607578,-22.885456 -14.74947,-22.885456l-176.999945,0zm228.626239,0c-8.149129,0 -14.74947,10.252398 -14.74947,22.885456c0,12.633872 6.600865,22.885456 14.74947,22.885456l58.999982,0c8.142417,0 14.749471,-10.252398 14.749471,-22.885456c0,-12.633872 -6.607578,-22.885456 -14.749471,-22.885456l-58.999982,0zm-272.878847,68.659623c-8.14913,0 -14.749471,10.252397 -14.749471,22.885455c0,12.633872 6.600865,22.885456 14.749471,22.885456l176.999944,0c8.142417,0 14.749471,-10.252398 14.749471,-22.885456c0,-12.633871 -6.607578,-22.885455 -14.749471,-22.885455l-176.999944,0zm221.252553,0c-8.14913,0 -14.749471,10.252397 -14.749471,22.885455c0,12.633872 6.600865,22.885456 14.749471,22.885456l154.878884,0c8.142417,0 14.749471,-10.252398 14.749471,-22.885456c0,-12.633871 -6.607578,-22.885455 -14.749471,-22.885455l-154.878884,0zm-243.373613,68.646602c-8.14913,0 -14.749471,10.252398 -14.749471,22.885456c0,12.633872 6.600866,22.885456 14.749471,22.885456l442.505106,0c8.142417,0 14.749471,-10.252398 14.749471,-22.885456c0,-12.633872 -6.607579,-22.885456 -14.749471,-22.885456l-442.505106,0zm22.125255,68.659622c-8.14913,0 -14.749471,10.252398 -14.749471,22.885456c0,12.633872 6.600866,22.885456 14.749471,22.885456l420.373557,0c8.142417,0 14.749471,-10.252398 14.749471,-22.885456c0,-12.633872 -6.607578,-22.885456 -14.749471,-22.885456l-420.373557,0zm44.250511,68.659623c-8.14913,0 -14.749471,10.252397 -14.749471,22.885455c0,12.633872 6.600865,22.885456 14.749471,22.885456l88.499972,0c8.142417,0 14.749471,-10.252398 14.749471,-22.885456c0,-12.633871 -6.608942,-22.885455 -14.749471,-22.885455l-88.499972,0zm132.747336,0c-8.14913,0 -14.749471,10.252397 -14.749471,22.885455c0,12.633872 6.600866,22.885456 14.749471,22.885456l199.121004,0c8.142417,0 14.749471,-10.252398 14.749471,-22.885456c0,-12.633871 -6.608942,-22.885455 -14.749471,-22.885455l-199.121004,0z" id="path4915"/>
  <metadata transform="matrix(0.11111111773384952,0,0,0.11111111773384952,0,0) " id="svg_20">image/svg+xml</metadata>
 </g>
</svg>