<svg width="100%" height="100%" viewBox="0 0 500 500" xmlns="http://www.w3.org/2000/svg">

 <metadata id="metadata7">image/svg+xml</metadata>
 <g>
  <title>background</title>
  <rect fill="none" id="canvas_background" height="402" width="582" y="-1" x="-1"/>
 </g>
 <g>
  <title>Layer 1</title>
  <path fill="#ffc800" d="m267.41,127.05l-46.527,144.13l56.035,7.834l-131.21,148.85l59.893,-118.98l-56.291,-7.7269l118.1,-174.1071z" id="path4-0"/>
  <path stroke-miterlimit="4" stroke="#969696" stroke-width="18" fill="#cccccc" d="m439.09,133.25c-5.09,-7.97 -11.39,-15.04 -18.91,-21.24c-26.28,-20.736 -54.39,-23.454 -77.3,-21.755c-12.56,-49.252 -44.43,-77.362 -91.9,-77.851c-13.713,0 -26.762,2.7647 -39.148,8.2941s-23.113,12.607 -32.181,21.233c-9.0683,8.6259 -16.256,19.464 -21.565,32.513c-5.9764,16.725 -7.4389,25.806 -7.6306,43.074c-17.081,-4.3171 -40.351,-5.4105 -54.741,0.33177c-17.252,7.52 -29.416,20.348 -36.494,38.485c-4.4235,12.165 -5.7506,24.108 -3.9812,35.831c1.7694,11.722 6.5247,22.449 14.266,32.181c7.7412,9.7318 17.473,16.809 29.195,21.233c8.1836,3.0965 16.256,4.6447 24.219,4.6447l238.21,0c19.021,0 36.494,2.9829 52.419,-7.8548c38.758,-27.342 46.344,-75.51 25.546,-109.12l-0.0042,0.00023z" id="path4-4"/>
  <path stroke="#969696" stroke-width="11.991557" stroke-miterlimit="4" fill="#3dade2" d="m227.6,168.21l-48.322,34.125c-10.211,7.1853 -16.444,19.537 -15.313,32.839c1.6508,20.05 19.322,34.914 39.372,33.263c20.05,-1.6509 34.914,-19.322 33.263,-39.372l-5.017,-58.997c-0.14954,-1.9622 -2.287,-2.959 -3.9835,-1.8575l0.0005,-0.0005z" id="path4"/>
  <path stroke="#969696" stroke-width="11.991557" stroke-miterlimit="4" fill="#3dade2" d="m346.63,265.68l-48.322,34.125c-10.211,7.1853 -16.444,19.537 -15.313,32.839c1.6508,20.05 19.322,34.914 39.372,33.263c20.05,-1.6509 34.914,-19.322 33.263,-39.372l-5.017,-58.997c-0.14954,-1.9622 -2.287,-2.959 -3.9835,-1.8575l0.0005,-0.0005z" id="path9411"/>
 </g>
</svg>