<svg  height="100%" width="100%" version="1.1" viewBox="0 0 500 500" xmlns="http://www.w3.org/2000/svg">
 <metadata id="metadata7">image/svg+xml</metadata>

 <g>
  <title>background</title>
  <rect fill="none" id="canvas_background"  height="502" width="502" y="-1" x="-1"/> 
 </g>
 <g>
  <title>Layer 1</title>
  <metadata id="svg_26">image/svg+xml</metadata>
  <metadata id="svg_15">image/svg+xml</metadata>
  <g stroke="null" id="svg_51">
   <path stroke="null" id="svg_16" fill="#9B5C5C" d="m418.039969,444.825679c3.683183,7.86824 -1.792153,14.301848 -12.151327,14.301848l-309.782024,0c-10.359174,0 -15.821267,-6.433608 -12.15221,-14.301848l97.798581,-209.494306c3.669058,-7.867522 15.035545,-13.179965 25.256114,-11.790524l25.407962,3.440248c10.221452,1.378681 26.939678,1.378681 37.16113,0l25.407962,-3.440248c10.221452,-1.390159 21.587056,3.922284 25.256114,11.790524l97.797698,209.494306z"/>
   <g stroke="null" transform="matrix(0.8828339656133682,0,0,0.7173160557947988,-1606.6707662424342,-1747.679815358164) " id="svg_25">
    <path stroke="null" id="svg_28" fill="#E8563F" d="m2104.211008,2927.153298c-5.891,0 -10.672,-4.765 -10.672,-10.671l0,-106.653c0,-5.891 4.781,-10.671 10.672,-10.671c5.89,0 10.671,4.781 10.671,10.671l0,106.653c0,5.906 -4.781,10.671 -10.671,10.671z"/>
    <path stroke="null" id="svg_30" fill="#E8563F" d="m2050.884008,2863.156298c-5.89,0 -10.671,-4.766 -10.671,-10.672l0,-53.327c0,-5.891 4.781,-10.671 10.671,-10.671c5.891,0 10.656,4.781 10.656,10.671l0,53.327c0,5.906 -4.765,10.672 -10.656,10.672z"/>
    <path stroke="null" id="svg_31" fill="#E8563F" d="m2157.537008,2841.828298c-5.891,0 -10.656,-4.78 -10.656,-10.671l0,-35.203c0,-5.89 4.766,-10.655 10.656,-10.655s10.672,4.765 10.672,10.655l0,35.203c0,5.891 -4.781,10.671 -10.672,10.671z"/>
   </g>
   <path stroke="null" id="svg_32" fill="#CBD0D8" d="m305.415075,186.543839c-0.303695,-0.302707 -7.310748,-7.509582 -0.662125,-12.933926c14.786586,-12.059518 6.882574,-26.853444 0.60739,-33.028818c0,0 -0.014125,-0.011477 -0.027368,-0.022237l0,0l0,0c-1.724175,-1.692149 -4.331183,-2.7796 -7.256012,-2.7796c-5.200775,0 -9.407479,3.429488 -9.407479,7.65448c0,1.860718 0.813973,3.563626 2.165592,4.886357l0,0c0.014125,0.011477 2.000502,2.107475 2.965439,4.774456c1.13091,3.126781 0.414049,5.435821 -2.3863,7.721907c-14.745976,12.025804 -6.883456,27.055727 -0.662125,33.332242l0,-0.011477c1.724175,1.736622 4.372677,2.857787 7.324873,2.857787c5.200775,0 9.421604,-3.429488 9.421604,-7.65448c-0.000883,-1.81481 -0.787488,-3.485439 -2.083488,-4.796692l0,0z"/>
   <path stroke="null" id="svg_33" fill="#A9B1BC" d="m266.819339,118.356492c-2.469287,-11.420389 -7.214519,-20.633596 -7.807784,-21.776281c-0.014125,-0.022237 -0.027368,-0.045191 -0.041493,-0.067428c0,-0.011477 -0.014125,-0.033714 -0.027368,-0.045191l0,0c-1.448731,-2.701412 -4.758475,-4.595127 -8.620874,-4.595127c-5.200775,0 -9.421604,3.429488 -9.421604,7.655197c0,1.087451 0.28957,2.118234 0.786605,3.06007l0,0c0.041493,0.078187 4.386802,8.249135 6.579762,18.402743c1.834529,8.540365 2.455161,20.174514 -5.007434,27.03349c-9.862138,9.067592 -13.007676,22.852255 -9.076416,39.888511c2.578758,11.196586 7.365484,20.274221 8.137963,21.698093c0,0.011477 0,0.022237 0.014125,0.033714c0.041493,0.078187 0.068861,0.134855 0.082986,0.145615l0,0c1.476098,2.656221 4.759358,4.505462 8.580263,4.505462c5.199892,0 9.420721,-3.418728 9.420721,-7.65448c0,-1.109688 -0.303695,-2.174185 -0.841341,-3.138258l0.014125,0c-4.828219,-8.741931 -14.635621,-33.92618 -2.22121,-45.346569c9.83477,-9.034596 13.104787,-22.797739 9.448972,-39.799564z"/>
   <path stroke="null" id="svg_34" fill="#CBD0D8" d="m211.18844,140.581095c0,-0.011477 -0.014125,-0.011477 -0.014125,-0.011477c0,-0.011477 0,-0.011477 0,-0.011477l-0.014125,0c-1.724175,-1.692149 -4.331183,-2.7796 -7.241887,-2.7796c-5.199892,0 -9.420721,3.429488 -9.420721,7.65448c0,1.860718 0.813973,3.563626 2.165592,4.886357l0,0c0.027368,0.011477 2.013744,2.107475 2.965439,4.774456c1.13091,3.126781 0.414049,5.435821 -2.3863,7.721907c-14.745976,12.025804 -6.883456,27.055727 -0.662125,33.332242l0,-0.011477c1.7383,1.736622 4.372677,2.857787 7.338116,2.857787c5.200775,0 9.407479,-3.429488 9.407479,-7.65448c0,-1.815527 -0.77248,-3.485439 -2.082605,-4.79741l0,0c-0.303695,-0.302707 -7.310748,-7.509582 -0.662125,-12.933926c14.800711,-12.057366 6.884339,-26.862769 0.60739,-33.027383z"/>
   <path stroke="null" id="svg_35" fill="#FB6D51" d="m250.998072,267.855917c56.500491,0 78.293247,-13.146251 78.293247,-13.146251l-9.048165,-19.378293c-3.669058,-7.867522 -15.034662,-13.179965 -25.256114,-11.790524l-25.407962,3.440248c-10.221452,1.378681 -26.939678,1.378681 -37.16113,0l-25.407962,-3.440248c-10.221452,-1.390159 -21.587939,3.922284 -25.256114,11.790524l-10.387424,22.247557c-0.000883,-0.000717 23.132016,10.276987 79.631624,10.276987z"/>
   <g stroke="null" transform="matrix(0.8828339656133682,0,0,0.7173160557947988,-1606.6707662424342,-1747.679815358164) " id="svg_36"/>
   <g stroke="null" transform="matrix(0.8828339656133682,0,0,0.7173160557947988,-1606.6707662424342,-1747.679815358164) " id="svg_37"/>
   <g stroke="null" transform="matrix(0.8828339656133682,0,0,0.7173160557947988,-1606.6707662424342,-1747.679815358164) " id="svg_38"/>
   <g stroke="null" transform="matrix(0.8828339656133682,0,0,0.7173160557947988,-1606.6707662424342,-1747.679815358164) " id="svg_39"/>
   <g stroke="null" transform="matrix(0.8828339656133682,0,0,0.7173160557947988,-1606.6707662424342,-1747.679815358164) " id="svg_40"/>
   <g stroke="null" transform="matrix(0.8828339656133682,0,0,0.7173160557947988,-1606.6707662424342,-1747.679815358164) " id="svg_41"/>
   <g stroke="null" transform="matrix(0.8828339656133682,0,0,0.7173160557947988,-1606.6707662424342,-1747.679815358164) " id="svg_42"/>
   <g stroke="null" transform="matrix(0.8828339656133682,0,0,0.7173160557947988,-1606.6707662424342,-1747.679815358164) " id="svg_43"/>
   <g stroke="null" transform="matrix(0.8828339656133682,0,0,0.7173160557947988,-1606.6707662424342,-1747.679815358164) " id="svg_44"/>
   <g stroke="null" transform="matrix(0.8828339656133682,0,0,0.7173160557947988,-1606.6707662424342,-1747.679815358164) " id="svg_45"/>
   <g stroke="null" transform="matrix(0.8828339656133682,0,0,0.7173160557947988,-1606.6707662424342,-1747.679815358164) " id="svg_46"/>
   <g stroke="null" transform="matrix(0.8828339656133682,0,0,0.7173160557947988,-1606.6707662424342,-1747.679815358164) " id="svg_47"/>
   <g stroke="null" transform="matrix(0.8828339656133682,0,0,0.7173160557947988,-1606.6707662424342,-1747.679815358164) " id="svg_48"/>
   <g stroke="null" transform="matrix(0.8828339656133682,0,0,0.7173160557947988,-1606.6707662424342,-1747.679815358164) " id="svg_49"/>
   <g stroke="null" transform="matrix(0.8828339656133682,0,0,0.7173160557947988,-1606.6707662424342,-1747.679815358164) " id="svg_50"/>
  </g>
 </g>
</svg>