<svg xmlns="http://www.w3.org/2000/svg" width="100%" height="100%" viewBox="0 0 500 500">
 <metadata id="metadata7">/svg+xml</metadata>

 <g>
  <title>background</title>
  <rect x="-1" y="-1" width="502" height="502" id="canvas_background" fill="none"/>
 </g>
 <g>
  <title>Layer 1</title>
  <path stroke="null" d="m439.21875,267.386213c-128.72644,2.165395 -257.47005,-2.398127 -386.1875,2.297263c-6.63087,8.149609 -4.88468,36.51468 3.7087,35.10255c16.50341,3.541548 33.2553,-1.521707 49.85377,0.733438c118.79455,-0.794756 237.73447,2.318301 356.43753,-1.782438c6.86735,-9.198804 3.89577,-38.330264 -4.78125,-36.215679c-6.32019,-1.14048 -12.69632,0.031783 -19.03125,-0.135133z" id="path4" fill="#888888"/>
  <path stroke="null" d="m460.59266,286.189679c-8.8098,0.600135 -13.05506,2.996986 -13.41662,3.793485c-0.36156,0.796498 -9.63993,10.724824 -14.49744,16.073417c-7.51255,-6.888587 -11.73395,-15.338433 -21.15172,-21.236307c-6.15976,-1.894909 -12.49694,1.603746 -14.1483,5.304816c-4.84465,5.305824 -9.72776,10.597425 -14.54704,15.912626c-7.49277,-6.860757 -11.71952,-15.354149 -21.12214,-21.217442c-6.17075,-1.901544 -12.48565,1.595845 -14.17789,5.304816c-4.84465,5.305824 -9.72776,10.597425 -14.54704,15.912626c-7.49277,-6.860757 -11.71952,-15.354149 -21.12214,-21.217442c-6.17073,-1.901544 -12.48565,1.595845 -14.17788,5.304825c-4.92299,5.394031 -9.89197,10.771089 -14.78371,16.176654c-7.32187,-6.971118 -11.93843,-15.222916 -20.82631,-21.424897c-5.71837,-1.882705 -12.23044,1.119853 -13.7884,4.746254c-5.05801,5.54059 -10.1135,11.082103 -15.17319,16.622067c-7.68977,-6.912821 -11.80632,-15.571118 -21.44756,-21.500343c-6.11237,-1.74379 -11.96999,1.884447 -13.67434,5.399354c-4.90802,5.367137 -9.81951,10.732973 -14.72517,16.100989c-7.68977,-6.912821 -11.80631,-15.571118 -21.44755,-21.500343c-6.11245,-1.744575 -11.96954,1.884593 -13.67435,5.399354c-4.91691,5.380069 -9.84621,10.75554 -14.75475,16.13871c-7.44263,-6.983618 -11.9202,-15.422951 -21.15172,-21.443766c-6.01308,-1.884202 -12.65116,1.521008 -14.29172,5.236465c-4.86813,5.334061 -9.75516,10.661126 -14.61071,15.999841c-9.17257,-9.254057 0.09843,-1.985934 -10.68371,-10.496024c-0.6364,-2.296141 -29.95132,-10.598326 -23.13478,-4.494819c6.81654,6.103506 -0.99028,0.904522 5.12315,6.145525c6.11343,5.241003 11.10213,14.415758 19.96841,19.91611c8.55004,3.65007 21.38238,0.597621 24.59603,-5.57237c3.17403,-3.387933 6.26819,-6.811378 9.36505,-10.232266c5.89202,6.06135 9.22013,14.939276 21.24048,17.16255c10.19203,1.760411 18.27043,-4.225695 21.83212,-9.580851c2.12156,-1.744952 3.39972,-6.937541 8.40153,-5.356229c5.35286,5.336519 8.65916,13.090058 19.4655,14.974805c10.20146,1.682186 18.36639,-4.142923 21.89129,-9.524279c2.39268,-1.752995 3.13372,-6.930296 8.40153,-5.733423c5.38879,4.781234 7.83461,11.52619 16.56638,14.522165c9.51852,3.16486 20.6724,-1.750155 23.72543,-7.694865c3.39648,-1.992608 3.12861,-7.074274 8.7861,-6.940462c4.36083,2.175395 5.28317,6.292908 8.72694,9.052778c4.00707,4.941862 13.62949,8.455131 22.0392,5.544824c9.18113,-2.70135 11.13413,-9.472189 16.62555,-14.163817c3.83655,-1.86406 5.78291,2.097856 6.87524,3.698664c4.0209,5.297378 10.45363,12.362074 21.28762,11.408151c11.57013,-0.883298 15.70637,-8.674249 20.67839,-14.352421c1.8828,-2.184394 6.37518,-0.845131 6.59698,1.357913c4.36953,5.570333 10.1462,13.431497 21.71379,13.032229c11.41146,-0.412269 16.31208,-7.913263 20.64882,-13.484861c0.91465,-2.279078 6.05672,-2.941576 7.04071,-0.320622c4.33357,5.993342 10.46776,14.417311 22.69003,13.786627c10.04527,-0.514781 11.00232,-0.963128 18.8706,-11.909849c7.86828,-10.946722 8.37475,-17.051987 8.32665,-12.828265c-0.0481,4.223722 8.40246,-8.402809 -0.40734,-7.802674z" id="path3809" fill="#00aa00"/>
  <metadata id="svg_11">image/svg+xml</metadata>
  <path d="m225.78946,228.86968l29.76056,-29.20016l30.24057,29.20016l-30.24057,28.73665l-29.76056,-28.73665z" id="svg_9" stroke-miterlimit="4" stroke-width="13.32092" fill="#555555" stroke="#969696"/>
  <path d="m134.78946,227.86968l29.76056,-29.20016l30.24057,29.20016l-30.24057,28.73665l-29.76056,-28.73665z" id="svg_14" stroke-miterlimit="4" stroke-width="13.32092" fill="#555555" stroke="#969696"/>
  <path d="m314.78946,226.86968l29.76056,-29.20016l30.24057,29.20016l-30.24057,28.73665l-29.76056,-28.73665z" id="svg_15" stroke-miterlimit="4" stroke-width="13.32092" fill="#555555" stroke="#969696"/>
 </g>
</svg>
