<svg height="100%" width="100%" version="1.1" viewBox="0 0 500 500" xmlns="http://www.w3.org/2000/svg">
 <defs>
  <linearGradient y2="0.658003" x2="0.939474" y1="0.29745" x1="0.166314" id="SVGID_1_">
   <stop stop-color="#FFFFFF" stop-opacity="0.2" offset="0"/>
   <stop stop-color="#FFFFFF" stop-opacity="0" offset="1"/>
  </linearGradient>
 </defs>
 <g>
  <title>background</title>
  <rect fill="none" id="canvas_background" height="502" width="502" y="-1" x="-1"/>
 </g>
 <g>
  <title>Layer 1</title>
  <path id="svg_7" fill="url(#SVGID_1_)"/>
  <g id="svg_8"/>
  <g id="svg_9"/>
  <g id="svg_10"/>
  <g id="svg_11"/>
  <g id="svg_12"/>
  <g id="svg_13"/>
  <g id="svg_14"/>
  <g id="svg_15"/>
  <g id="svg_16"/>
  <g id="svg_17"/>
  <g id="svg_18"/>
  <g id="svg_19"/>
  <g id="svg_20"/>
  <g id="svg_21"/>
  <g id="svg_22"/>
  <metadata transform="matrix(0.0979001478389172,0,0,0.0979001478389172,0,0) " id="svg_74">image/svg+xml</metadata>
  <metadata transform="matrix(0.0979001478389172,0,0,0.0979001478389172,0,0) " id="svg_130">image/svg+xml</metadata>
  <metadata stroke="null" transform="translate(-58.339107513427734,-94.69953918457031) translate(-301.4187316894531,-332.4558410644531) translate(2147.008544921875,0) translate(0,2147.008544921875) matrix(0.5142348169488586,0,0,0.49630652373156187,-1761.6418796454275,-1721.2622640649024) " id="svg_127">image/svg+xml</metadata>
  <metadata stroke="null" transform="translate(-58.339107513427734,-94.69953918457031) translate(-301.4187316894531,-332.4558410644531) translate(2147.008544921875,0) translate(0,2147.008544921875) matrix(0.5142348169488586,0,0,0.49630652373156187,-1761.6418796454275,-1721.2622640649024) " id="svg_126">image/svg+xml</metadata>
  <g transform="matrix(1.0917088459674629,0,0,0.9375454928718354,-1956.6321840761432,-1668.7975713982457) " stroke="null" id="svg_106">
   <g stroke="null" id="svg_122" transform="matrix(0.8348303186207112,0,0,0.8514699177866906,-1117.7333626034203,-1445.782840609819) ">
    <path stroke="null" d="m3903.237169,4038.316417c-35.297,0 -64,28.711 -64,64c0,8.836 7.156,16 16,16s16,-7.164 16,-16c0,-17.649 14.359,-32 32,-32s32,14.351 32,32s-14.359,32 -32,32l-366.734,0c-8.844,0 -16,7.164 -16,16c0,8.836 7.156,16 16,16l366.734,0c35.297,0 64,-28.711 64,-64s-28.703,-64 -64,-64z" fill="#9ACEE6" id="svg_125"/>
    <path stroke="null" d="m3535.237169,4102.316417l208,0c35.297,0 64,-28.711 64,-64s-28.703,-64 -64,-64s-64,28.711 -64,64c0,8.836 7.156,16 16,16s16,-7.164 16,-16c0,-17.649 14.359,-32 32,-32s32,14.351 32,32s-14.359,32 -32,32l-208,0c-8.844,0 -16,7.164 -16,16s7.156,16 16,16z" fill="#9ACEE6" id="svg_124"/>
    <path stroke="null" d="m3743.237169,4198.316417l-208,0c-8.844,0 -16,7.164 -16,16s7.156,16 16,16l208,0c17.641,0 32,14.351 32,32s-14.359,32 -32,32s-32,-14.351 -32,-32c0,-8.836 -7.156,-16 -16,-16s-16,7.164 -16,16c0,35.289 28.703,64 64,64s64,-28.711 64,-64s-28.703,-64 -64,-64z" fill="#9ACEE6" id="svg_123"/>
   </g>
   <g stroke="null" id="svg_121" transform="matrix(0.8348303186207112,0,0,0.8514699177866906,-1117.7333626034203,-1445.782840609819) "/>
   <g stroke="null" id="svg_120" transform="matrix(0.8348303186207112,0,0,0.8514699177866906,-1117.7333626034203,-1445.782840609819) "/>
   <g stroke="null" id="svg_119" transform="matrix(0.8348303186207112,0,0,0.8514699177866906,-1117.7333626034203,-1445.782840609819) "/>
   <g stroke="null" id="svg_118" transform="matrix(0.8348303186207112,0,0,0.8514699177866906,-1117.7333626034203,-1445.782840609819) "/>
   <g stroke="null" id="svg_117" transform="matrix(0.8348303186207112,0,0,0.8514699177866906,-1117.7333626034203,-1445.782840609819) "/>
   <g stroke="null" id="svg_116" transform="matrix(0.8348303186207112,0,0,0.8514699177866906,-1117.7333626034203,-1445.782840609819) "/>
   <g stroke="null" id="svg_115" transform="matrix(0.8348303186207112,0,0,0.8514699177866906,-1117.7333626034203,-1445.782840609819) "/>
   <g stroke="null" id="svg_114" transform="matrix(0.8348303186207112,0,0,0.8514699177866906,-1117.7333626034203,-1445.782840609819) "/>
   <g stroke="null" id="svg_113" transform="matrix(0.8348303186207112,0,0,0.8514699177866906,-1117.7333626034203,-1445.782840609819) "/>
   <g stroke="null" id="svg_112" transform="matrix(0.8348303186207112,0,0,0.8514699177866906,-1117.7333626034203,-1445.782840609819) "/>
   <g stroke="null" id="svg_111" transform="matrix(0.8348303186207112,0,0,0.8514699177866906,-1117.7333626034203,-1445.782840609819) "/>
   <g stroke="null" id="svg_110" transform="matrix(0.8348303186207112,0,0,0.8514699177866906,-1117.7333626034203,-1445.782840609819) "/>
   <g stroke="null" id="svg_109" transform="matrix(0.8348303186207112,0,0,0.8514699177866906,-1117.7333626034203,-1445.782840609819) "/>
   <g stroke="null" id="svg_108" transform="matrix(0.8348303186207112,0,0,0.8514699177866906,-1117.7333626034203,-1445.782840609819) "/>
   <g stroke="null" id="svg_107" transform="matrix(0.8348303186207112,0,0,0.8514699177866906,-1117.7333626034203,-1445.782840609819) "/>
  </g>
  <g stroke="null" transform="matrix(0.47315130822060264,0,0,0.4601304760004586,-862.3995253530447,-172.35987783038217) " id="svg_158"/>
  <g stroke="null" transform="matrix(0.47315130822060264,0,0,0.4601304760004586,-862.3995253530447,-172.35987783038217) " id="svg_159"/>
  <g stroke="null" transform="matrix(0.47315130822060264,0,0,0.4601304760004586,-862.3995253530447,-172.35987783038217) " id="svg_160"/>
  <g stroke="null" transform="matrix(0.47315130822060264,0,0,0.4601304760004586,-862.3995253530447,-172.35987783038217) " id="svg_161"/>
  <g stroke="null" transform="matrix(0.47315130822060264,0,0,0.4601304760004586,-862.3995253530447,-172.35987783038217) " id="svg_162"/>
  <g stroke="null" transform="matrix(0.47315130822060264,0,0,0.4601304760004586,-862.3995253530447,-172.35987783038217) " id="svg_163"/>
  <g stroke="null" transform="matrix(0.47315130822060264,0,0,0.4601304760004586,-862.3995253530447,-172.35987783038217) " id="svg_164"/>
  <g stroke="null" transform="matrix(0.47315130822060264,0,0,0.4601304760004586,-862.3995253530447,-172.35987783038217) " id="svg_165"/>
  <g stroke="null" transform="matrix(0.47315130822060264,0,0,0.4601304760004586,-862.3995253530447,-172.35987783038217) " id="svg_166"/>
  <g stroke="null" transform="matrix(0.47315130822060264,0,0,0.4601304760004586,-862.3995253530447,-172.35987783038217) " id="svg_167"/>
  <g stroke="null" transform="matrix(0.47315130822060264,0,0,0.4601304760004586,-862.3995253530447,-172.35987783038217) " id="svg_168"/>
  <g stroke="null" transform="matrix(0.47315130822060264,0,0,0.4601304760004586,-862.3995253530447,-172.35987783038217) " id="svg_169"/>
  <g stroke="null" transform="matrix(0.47315130822060264,0,0,0.4601304760004586,-862.3995253530447,-172.35987783038217) " id="svg_170"/>
  <g stroke="null" transform="matrix(0.47315130822060264,0,0,0.4601304760004586,-862.3995253530447,-172.35987783038217) " id="svg_171"/>
  <g stroke="null" transform="matrix(0.47315130822060264,0,0,0.4601304760004586,-862.3995253530447,-172.35987783038217) " id="svg_172"/>
  <path stroke="null" id="svg_201" fill="#9ACEE6" d="m390.387856,159.90432l-17.323865,-10.29319l17.323865,-10.29319c2.932202,-1.738629 3.936129,-5.587552 2.240472,-8.604956c-1.695657,-3.017404 -5.448141,-4.050503 -8.361978,-2.305574l-17.323865,10.29319l0,-20.586381c0,-3.483558 -2.736314,-6.299382 -6.121507,-6.299382s-6.121507,2.815824 -6.121507,6.299382l0,20.586381l-17.323865,-10.29319c-2.92608,-1.744929 -6.672443,-0.71183 -8.361978,2.305574c-1.689536,3.017404 -0.685609,6.866327 2.240472,8.604956l17.323865,10.29319l-17.323865,10.29319c-2.932202,1.738629 -3.936129,5.593851 -2.240472,8.604956c1.1386,2.022102 3.189305,3.149691 5.307347,3.149691c1.040656,0 2.093555,-0.270873 3.054632,-0.844117l17.323865,-10.29319l0,20.586381c0,3.483558 2.736314,6.299382 6.121507,6.299382s6.121507,-2.815824 6.121507,-6.299382l0,-20.586381l17.323865,10.29319c0.961077,0.573244 2.013976,0.844117 3.054632,0.844117c2.118041,0 4.174868,-1.127589 5.307347,-3.149691c1.695657,-3.017404 0.69173,-6.866327 -2.240472,-8.604956z"/>
  <g transform="matrix(7.716048794028211,0,0,7.716048794028211,0,0) " id="svg_204"/>
  <g transform="matrix(7.716048794028211,0,0,7.716048794028211,0,0) " id="svg_205"/>
  <g transform="matrix(7.716048794028211,0,0,7.716048794028211,0,0) " id="svg_206"/>
  <g transform="matrix(7.716048794028211,0,0,7.716048794028211,0,0) " id="svg_207"/>
  <g transform="matrix(7.716048794028211,0,0,7.716048794028211,0,0) " id="svg_208"/>
  <g transform="matrix(7.716048794028211,0,0,7.716048794028211,0,0) " id="svg_209"/>
  <g transform="matrix(7.716048794028211,0,0,7.716048794028211,0,0) " id="svg_210"/>
  <g transform="matrix(7.716048794028211,0,0,7.716048794028211,0,0) " id="svg_211"/>
  <g transform="matrix(7.716048794028211,0,0,7.716048794028211,0,0) " id="svg_212"/>
  <g transform="matrix(7.716048794028211,0,0,7.716048794028211,0,0) " id="svg_213"/>
  <g transform="matrix(7.716048794028211,0,0,7.716048794028211,0,0) " id="svg_214"/>
  <g transform="matrix(7.716048794028211,0,0,7.716048794028211,0,0) " id="svg_215"/>
  <g transform="matrix(7.716048794028211,0,0,7.716048794028211,0,0) " id="svg_216"/>
  <g transform="matrix(7.716048794028211,0,0,7.716048794028211,0,0) " id="svg_217"/>
  <g transform="matrix(7.716048794028211,0,0,7.716048794028211,0,0) " id="svg_218"/>
  <path stroke="null" id="svg_220" fill="#9ACEE6" d="m468.186215,187.72782l-12.811311,-6.616691l12.811311,-6.61669c2.168416,-1.11763 2.910838,-3.591802 1.656869,-5.531456c-1.25397,-1.939654 -4.028999,-2.603753 -6.183834,-1.482074l-12.81131,6.61669l0,-13.233382c0,-2.239308 -2.023554,-4.049382 -4.526965,-4.049382s-4.526965,1.810074 -4.526965,4.049382l0,13.233382l-12.811311,-6.61669c-2.163889,-1.121679 -4.934392,-0.45758 -6.183834,1.482074c-1.249442,1.939654 -0.50702,4.413826 1.656869,5.531456l12.811311,6.61669l-12.811311,6.616691c-2.168416,1.117629 -2.910838,3.595851 -1.656869,5.531456c0.842015,1.299851 2.358549,2.024691 3.924878,2.024691c0.769584,0 1.548222,-0.174124 2.258955,-0.542617l12.811311,-6.616691l0,13.233382c0,2.239308 2.023553,4.049382 4.526965,4.049382s4.526965,-1.810074 4.526965,-4.049382l0,-13.233382l12.81131,6.616691c0.710734,0.368493 1.489372,0.542617 2.258955,0.542617c1.56633,0 3.08739,-0.72484 3.924879,-2.024691c1.253969,-1.939654 0.511547,-4.413827 -1.656869,-5.531456z"/>
  <path stroke="null" id="svg_221" fill="#9ACEE6" d="m478.186215,311.72782l-12.811311,-6.616691l12.811311,-6.616691c2.168416,-1.11763 2.910838,-3.591802 1.656869,-5.531456c-1.253969,-1.939654 -4.028999,-2.603753 -6.183834,-1.482074l-12.81131,6.616691l0,-13.233382c0,-2.239308 -2.023554,-4.049382 -4.526965,-4.049382s-4.526965,1.810074 -4.526965,4.049382l0,13.233382l-12.811311,-6.616691c-2.163889,-1.121679 -4.934392,-0.45758 -6.183833,1.482074c-1.249443,1.939654 -0.50702,4.413826 1.656869,5.531456l12.81131,6.616691l-12.81131,6.616691c-2.168417,1.117629 -2.910839,3.595851 -1.656869,5.531456c0.842015,1.299852 2.358548,2.024691 3.924878,2.024691c0.769584,0 1.548222,-0.174123 2.258955,-0.542617l12.811311,-6.616691l0,13.233382c0,2.239308 2.023553,4.049382 4.526965,4.049382s4.526965,-1.810074 4.526965,-4.049382l0,-13.233382l12.81131,6.616691c0.710734,0.368494 1.489372,0.542617 2.258956,0.542617c1.566329,0 3.08739,-0.724839 3.924878,-2.024691c1.253969,-1.939654 0.511547,-4.413827 -1.656869,-5.531456z"/>
  <path stroke="null" id="svg_222" fill="#9ACEE6" d="m418.186215,360.72782l-12.811311,-6.616691l12.811311,-6.616691c2.168416,-1.11763 2.910838,-3.591802 1.656869,-5.531456c-1.253969,-1.939654 -4.028999,-2.603753 -6.183834,-1.482074l-12.81131,6.616691l0,-13.233382c0,-2.239308 -2.023554,-4.049382 -4.526965,-4.049382s-4.526965,1.810074 -4.526965,4.049382l0,13.233382l-12.811311,-6.616691c-2.163889,-1.121679 -4.934392,-0.45758 -6.183833,1.482074c-1.249443,1.939654 -0.50702,4.413826 1.656869,5.531456l12.81131,6.616691l-12.81131,6.616691c-2.168417,1.117629 -2.910839,3.595851 -1.656869,5.531456c0.842015,1.299852 2.358548,2.024691 3.924878,2.024691c0.769584,0 1.548222,-0.174123 2.258955,-0.542617l12.811311,-6.616691l0,13.233382c0,2.239308 2.023553,4.049382 4.526965,4.049382s4.526965,-1.810074 4.526965,-4.049382l0,-13.233382l12.81131,6.616691c0.710734,0.368494 1.489372,0.542617 2.258956,0.542617c1.566329,0 3.08739,-0.724839 3.924878,-2.024691c1.253969,-1.939654 0.511547,-4.413827 -1.656869,-5.531456z"/>
  <path stroke="null" id="svg_223" fill="#9ACEE6" d="m454.387856,105.90432l-17.323865,-10.293191l17.323865,-10.29319c2.932202,-1.73863 3.936129,-5.587552 2.240472,-8.604956c-1.695658,-3.017404 -5.448142,-4.050503 -8.361979,-2.305574l-17.323864,10.29319l0,-20.586381c0,-3.483558 -2.736314,-6.299382 -6.121507,-6.299382s-6.121507,2.815824 -6.121507,6.299382l0,20.586381l-17.323865,-10.29319c-2.92608,-1.744929 -6.672443,-0.71183 -8.361978,2.305574c-1.689536,3.017404 -0.685609,6.866326 2.240471,8.604956l17.323865,10.29319l-17.323865,10.293191c-2.932202,1.738629 -3.936129,5.593851 -2.240471,8.604956c1.1386,2.022101 3.189305,3.149691 5.307346,3.149691c1.040656,0 2.093555,-0.270874 3.054632,-0.844117l17.323865,-10.293191l0,20.586381c0,3.483558 2.736313,6.299382 6.121507,6.299382s6.121507,-2.815824 6.121507,-6.299382l0,-20.586381l17.323864,10.293191c0.961077,0.573243 2.013976,0.844117 3.054632,0.844117c2.118041,0 4.174868,-1.12759 5.307347,-3.149691c1.695657,-3.017404 0.69173,-6.866327 -2.240472,-8.604956z"/>
  <path stroke="null" id="svg_224" fill="#9ACEE6" d="m481.796724,247.729984l-9.360534,-5.118857l9.360534,-5.118857c1.584345,-0.86463 2.126792,-2.778719 1.210585,-4.279289c-0.916208,-1.500571 -2.943772,-2.014336 -4.518194,-1.146574l-9.360533,5.118857l0,-10.237715c0,-1.732391 -1.478502,-3.132715 -3.307609,-3.132715s-3.307609,1.400324 -3.307609,3.132715l0,10.237715l-9.360534,-5.118857c-1.581037,-0.867762 -3.605294,-0.353997 -4.518193,1.146574c-0.912901,1.500571 -0.370452,3.414659 1.210585,4.279289l9.360533,5.118857l-9.360533,5.118857c-1.584345,0.864629 -2.126793,2.781851 -1.210585,4.279289c0.615215,1.005602 1.723264,1.566358 2.867697,1.566358c0.562294,0 1.131202,-0.134706 1.650497,-0.419784l9.360534,-5.118857l0,10.237715c0,1.732391 1.478501,3.132715 3.307609,3.132715s3.307609,-1.400324 3.307609,-3.132715l0,-10.237715l9.360533,5.118857c0.519295,0.285077 1.088204,0.419784 1.650497,0.419784c1.144432,0 2.255789,-0.560756 2.867697,-1.566358c0.916208,-1.500571 0.37376,-3.41466 -1.210585,-4.279289z"/>
 </g>
</svg>