<svg height="100%" width="100%" version="1.1" viewBox="0 0 500 500" xmlns="http://www.w3.org/2000/svg">
 <defs>
  <linearGradient y2="0.658003" x2="0.939474" y1="0.29745" x1="0.166314" id="SVGID_1_">
   <stop stop-color="#FFFFFF" stop-opacity="0.2" offset="0"/>
   <stop stop-color="#FFFFFF" stop-opacity="0" offset="1"/>
  </linearGradient>
 </defs>
 <g>
  <title>background</title>
  <rect fill="none" id="canvas_background" height="502" width="502" y="-1" x="-1"/>
 </g>
 <g>
  <title>Layer 1</title>
  <path id="svg_7" fill="url(#SVGID_1_)"/>
  <g id="svg_8"/>
  <g id="svg_9"/>
  <g id="svg_10"/>
  <g id="svg_11"/>
  <g id="svg_12"/>
  <g id="svg_13"/>
  <g id="svg_14"/>
  <g id="svg_15"/>
  <g id="svg_16"/>
  <g id="svg_17"/>
  <g id="svg_18"/>
  <g id="svg_19"/>
  <g id="svg_20"/>
  <g id="svg_21"/>
  <g id="svg_22"/>
  <metadata transform="matrix(0.0979001478389172,0,0,0.0979001478389172,0,0) " id="svg_74">image/svg+xml</metadata>
  <metadata transform="matrix(0.0979001478389172,0,0,0.0979001478389172,0,0) " id="svg_130">image/svg+xml</metadata>
  <metadata stroke="null" transform="translate(-58.339107513427734,-94.69953918457031) translate(-301.4187316894531,-332.4558410644531) translate(2147.008544921875,0) translate(0,2147.008544921875) matrix(0.5142348169488586,0,0,0.49630652373156187,-1761.6418796454275,-1721.2622640649024) " id="svg_127">image/svg+xml</metadata>
  <metadata stroke="null" transform="translate(-58.339107513427734,-94.69953918457031) translate(-301.4187316894531,-332.4558410644531) translate(2147.008544921875,0) translate(0,2147.008544921875) matrix(0.5142348169488586,0,0,0.49630652373156187,-1761.6418796454275,-1721.2622640649024) " id="svg_126">image/svg+xml</metadata>
  <g stroke="null" transform="matrix(0.47315130822060264,0,0,0.4601304760004586,-862.3995253530447,-172.35987783038217) " id="svg_158"/>
  <g stroke="null" transform="matrix(0.47315130822060264,0,0,0.4601304760004586,-862.3995253530447,-172.35987783038217) " id="svg_159"/>
  <g stroke="null" transform="matrix(0.47315130822060264,0,0,0.4601304760004586,-862.3995253530447,-172.35987783038217) " id="svg_160"/>
  <g stroke="null" transform="matrix(0.47315130822060264,0,0,0.4601304760004586,-862.3995253530447,-172.35987783038217) " id="svg_161"/>
  <g stroke="null" transform="matrix(0.47315130822060264,0,0,0.4601304760004586,-862.3995253530447,-172.35987783038217) " id="svg_162"/>
  <g stroke="null" transform="matrix(0.47315130822060264,0,0,0.4601304760004586,-862.3995253530447,-172.35987783038217) " id="svg_163"/>
  <g stroke="null" transform="matrix(0.47315130822060264,0,0,0.4601304760004586,-862.3995253530447,-172.35987783038217) " id="svg_164"/>
  <g stroke="null" transform="matrix(0.47315130822060264,0,0,0.4601304760004586,-862.3995253530447,-172.35987783038217) " id="svg_165"/>
  <g stroke="null" transform="matrix(0.47315130822060264,0,0,0.4601304760004586,-862.3995253530447,-172.35987783038217) " id="svg_166"/>
  <g stroke="null" transform="matrix(0.47315130822060264,0,0,0.4601304760004586,-862.3995253530447,-172.35987783038217) " id="svg_167"/>
  <g stroke="null" transform="matrix(0.47315130822060264,0,0,0.4601304760004586,-862.3995253530447,-172.35987783038217) " id="svg_168"/>
  <g stroke="null" transform="matrix(0.47315130822060264,0,0,0.4601304760004586,-862.3995253530447,-172.35987783038217) " id="svg_169"/>
  <g stroke="null" transform="matrix(0.47315130822060264,0,0,0.4601304760004586,-862.3995253530447,-172.35987783038217) " id="svg_170"/>
  <g stroke="null" transform="matrix(0.47315130822060264,0,0,0.4601304760004586,-862.3995253530447,-172.35987783038217) " id="svg_171"/>
  <g stroke="null" transform="matrix(0.47315130822060264,0,0,0.4601304760004586,-862.3995253530447,-172.35987783038217) " id="svg_172"/>
  <g transform="matrix(7.716048794028211,0,0,7.716048794028211,0,0) " id="svg_204"/>
  <g transform="matrix(7.716048794028211,0,0,7.716048794028211,0,0) " id="svg_205"/>
  <g transform="matrix(7.716048794028211,0,0,7.716048794028211,0,0) " id="svg_206"/>
  <g transform="matrix(7.716048794028211,0,0,7.716048794028211,0,0) " id="svg_207"/>
  <g transform="matrix(7.716048794028211,0,0,7.716048794028211,0,0) " id="svg_208"/>
  <g transform="matrix(7.716048794028211,0,0,7.716048794028211,0,0) " id="svg_209"/>
  <g transform="matrix(7.716048794028211,0,0,7.716048794028211,0,0) " id="svg_210"/>
  <g transform="matrix(7.716048794028211,0,0,7.716048794028211,0,0) " id="svg_211"/>
  <g transform="matrix(7.716048794028211,0,0,7.716048794028211,0,0) " id="svg_212"/>
  <g transform="matrix(7.716048794028211,0,0,7.716048794028211,0,0) " id="svg_213"/>
  <g transform="matrix(7.716048794028211,0,0,7.716048794028211,0,0) " id="svg_214"/>
  <g transform="matrix(7.716048794028211,0,0,7.716048794028211,0,0) " id="svg_215"/>
  <g transform="matrix(7.716048794028211,0,0,7.716048794028211,0,0) " id="svg_216"/>
  <g transform="matrix(7.716048794028211,0,0,7.716048794028211,0,0) " id="svg_217"/>
  <g transform="matrix(7.716048794028211,0,0,7.716048794028211,0,0) " id="svg_218"/>
  <g stroke="null" transform="matrix(0.6137732670576078,0,0,0.6398254774093335,-1248.3260130780343,-1275.7271519670273) " id="svg_245"/>
  <g stroke="null" transform="matrix(0.6137732670576078,0,0,0.6398254774093335,-1248.3260130780343,-1275.7271519670273) " id="svg_246"/>
  <g stroke="null" transform="matrix(0.6137732670576078,0,0,0.6398254774093335,-1248.3260130780343,-1275.7271519670273) " id="svg_247"/>
  <g stroke="null" transform="matrix(0.6137732670576078,0,0,0.6398254774093335,-1248.3260130780343,-1275.7271519670273) " id="svg_248"/>
  <g stroke="null" transform="matrix(0.6137732670576078,0,0,0.6398254774093335,-1248.3260130780343,-1275.7271519670273) " id="svg_249"/>
  <g stroke="null" transform="matrix(0.6137732670576078,0,0,0.6398254774093335,-1248.3260130780343,-1275.7271519670273) " id="svg_250"/>
  <g stroke="null" transform="matrix(0.6137732670576078,0,0,0.6398254774093335,-1248.3260130780343,-1275.7271519670273) " id="svg_251"/>
  <g stroke="null" transform="matrix(0.6137732670576078,0,0,0.6398254774093335,-1248.3260130780343,-1275.7271519670273) " id="svg_252"/>
  <g stroke="null" transform="matrix(0.6137732670576078,0,0,0.6398254774093335,-1248.3260130780343,-1275.7271519670273) " id="svg_253"/>
  <g stroke="null" transform="matrix(0.6137732670576078,0,0,0.6398254774093335,-1248.3260130780343,-1275.7271519670273) " id="svg_254"/>
  <g stroke="null" transform="matrix(0.6137732670576078,0,0,0.6398254774093335,-1248.3260130780343,-1275.7271519670273) " id="svg_255"/>
  <g stroke="null" transform="matrix(0.6137732670576078,0,0,0.6398254774093335,-1248.3260130780343,-1275.7271519670273) " id="svg_256"/>
  <g stroke="null" transform="matrix(0.6137732670576078,0,0,0.6398254774093335,-1248.3260130780343,-1275.7271519670273) " id="svg_257"/>
  <g stroke="null" transform="matrix(0.6137732670576078,0,0,0.6398254774093335,-1248.3260130780343,-1275.7271519670273) " id="svg_258"/>
  <g stroke="null" transform="matrix(0.6137732670576078,0,0,0.6398254774093335,-1248.3260130780343,-1275.7271519670273) " id="svg_259"/>
  <g stroke="null" transform="matrix(0.3598706159516998,0,0,0.49083523320826217,-506.00839807915065,-251.34560496039654) " id="svg_285"/>
  <g stroke="null" transform="matrix(0.3598706159516998,0,0,0.49083523320826217,-506.00839807915065,-251.34560496039654) " id="svg_286"/>
  <g stroke="null" transform="matrix(0.3598706159516998,0,0,0.49083523320826217,-506.00839807915065,-251.34560496039654) " id="svg_287"/>
  <g stroke="null" transform="matrix(0.3598706159516998,0,0,0.49083523320826217,-506.00839807915065,-251.34560496039654) " id="svg_288"/>
  <g stroke="null" transform="matrix(0.3598706159516998,0,0,0.49083523320826217,-506.00839807915065,-251.34560496039654) " id="svg_289"/>
  <g stroke="null" transform="matrix(0.3598706159516998,0,0,0.49083523320826217,-506.00839807915065,-251.34560496039654) " id="svg_290"/>
  <g stroke="null" transform="matrix(0.3598706159516998,0,0,0.49083523320826217,-506.00839807915065,-251.34560496039654) " id="svg_291"/>
  <g stroke="null" transform="matrix(0.3598706159516998,0,0,0.49083523320826217,-506.00839807915065,-251.34560496039654) " id="svg_292"/>
  <g stroke="null" transform="matrix(0.3598706159516998,0,0,0.49083523320826217,-506.00839807915065,-251.34560496039654) " id="svg_293"/>
  <g stroke="null" transform="matrix(0.3598706159516998,0,0,0.49083523320826217,-506.00839807915065,-251.34560496039654) " id="svg_294"/>
  <g stroke="null" transform="matrix(0.3598706159516998,0,0,0.49083523320826217,-506.00839807915065,-251.34560496039654) " id="svg_295"/>
  <g stroke="null" transform="matrix(0.3598706159516998,0,0,0.49083523320826217,-506.00839807915065,-251.34560496039654) " id="svg_296"/>
  <g stroke="null" transform="matrix(0.3598706159516998,0,0,0.49083523320826217,-506.00839807915065,-251.34560496039654) " id="svg_297"/>
  <g stroke="null" transform="matrix(0.3598706159516998,0,0,0.49083523320826217,-506.00839807915065,-251.34560496039654) " id="svg_298"/>
  <g stroke="null" transform="matrix(0.3598706159516998,0,0,0.49083523320826217,-506.00839807915065,-251.34560496039654) " id="svg_299"/>
  <g stroke="null" id="svg_304">
   <path stroke="null" id="svg_283" fill="#9CD7F2" d="m354.423693,254.367228c-51.21617,-38.076862 -108.421546,-76.609971 -159.038441,-157.77722l0,0c-9.899271,-12.677425 -32.100825,-8.176141 -34.118503,7.092556l-27.421277,207.41163c-12.132074,91.769791 91.481086,160.867252 187.300121,129.194428c88.982333,-29.401962 106.966501,-133.205248 33.278099,-185.921394z"/>
   <path stroke="null" id="svg_284" fill="#71C5DB" d="m210.97232,305.915799l-32.473156,-206.850655c-0.580363,-3.698706 0.179664,-7.037599 1.842742,-9.836255c-8.954851,-0.248862 -17.834054,5.060186 -19.076339,14.451601l-27.420095,207.412667c-12.132074,91.769791 91.481086,160.867252 187.300121,129.194428c19.958113,-6.593796 36.331212,-16.93918 48.913629,-29.604162c-72.416567,9.216175 -147.879155,-33.385821 -159.086903,-104.767625z"/>
  </g>
 </g>
</svg>