<svg height="100%" width="100%" version="1.1" viewBox="0 0 500 500" xmlns="http://www.w3.org/2000/svg">
 <metadata id="metadata7">image/svg+xml</metadata>

 <g>
  <title>background</title>
  <rect x="-1" y="-1" width="502" height="502" id="canvas_background" fill="none"/>
 </g>
 <g>
  <title>Layer 1</title>
  <g id="g3892" transform="matrix(0.76666663,0,0,0.76666663,183.72336,210.70157) " fill="#969696">
   <path id="path3894" d="m267.15,92.085c10.21,-15.985 43.17,-37.055 43.17,-37.055l1.1258,-0.9699l-1.1258,-0.96412s-32.415,-20.436 -42.156,-36.186c-3.716,-6.0088 -5.49,-13.498 -5.167,-20.555c0.86691,-18.943 18.849,-53.673 18.849,-53.673l0.4965,-1.4058l-1.4577,-0.27134s-38.377,-1.4982 -54.727,-10.285c-6.1563,-3.3084 -11.385,-8.8425 -14.6,-15.048c-8.7467,-16.88 -10.539,-56.052 -10.539,-56.052l-0.26846,-1.4606l-1.3942,0.48784s-33.966,17.844 -52.507,18.445c-7.3552,0.23855 -15.053,-1.9982 -21.26,-5.9522c-16.477,-10.497 -38.175,-44.474 -38.175,-44.474l-0.9699,-1.1258l-0.96412,1.1258s-21.638,34.079 -38.181,44.477c-5.0801,3.1929 -11.396,4.8726 -17.392,4.6416c-19.515,-0.75177 -55.278,-19.418 -55.278,-19.418l-1.3971,-0.49072l-0.27423,1.4577s-1.6896,40.323 -10.825,57.588c-2.6373,4.9842 -6.9981,9.3096 -11.988,11.936c-16.824,8.8554 -56.055,10.536 -56.055,10.536l-1.4606,0.27422l0.49649,1.3971s17.839,33.911 18.414,52.423c0.21868,7.0413 -1.9598,14.4 -5.753,20.336c-10.222,15.998 -43.218,37.096 -43.218,37.096l-1.1229,0.96701l1.1229,0.96413s32.4,20.421 42.127,36.166c3.7301,6.0379 5.5008,13.564 5.1728,20.654c-0.87518,18.917 -18.832,53.601 -18.832,53.601l-0.49072,1.3971l1.4548,0.27422s38.272,1.4909 54.574,10.259c6.2397,3.3561 11.534,8.9725 14.791,15.264c8.7113,16.827 10.499,55.867 10.499,55.867l0.27712,1.4606l1.4,-0.49938s33.812,-17.784 52.27,-18.359c7.1269,-0.22189 14.575,1.9808 20.584,5.8194c15.954,10.192 36.995,43.094 36.995,43.094l0.9699,1.1287l0.96701,-1.1287s20.382,-32.329 36.091,-42.043c6.0797,-3.7597 13.657,-5.5552 20.798,-5.2276c18.889,0.86639 53.517,18.806 53.517,18.806l1.4116,0.49072l0.26268,-1.4606s1.4982,-38.247 10.256,-54.542c3.3576,-6.2472 8.9727,-11.554 15.27,-14.817c16.824,-8.7166 55.867,-10.496 55.867,-10.496l1.4577,-0.28289l-0.48784,-1.3971s-17.808,-33.857 -18.39,-52.34c-0.22333,-7.0805 1.9556,-14.483 5.7674,-20.454l0.00187,-0.00039z" fill="#969696"/>
  </g>
  <g id="g3" transform="matrix(0.69565217,0,0,0.69565217,189.86321,214.34188) " fill="#ffc800" stroke-width="10" stroke-miterlimit="4" stroke="#ffa900">
   <path id="path5" d="m267.15,92.085c10.205,-15.985 43.172,-37.055 43.172,-37.055l1.1258,-0.9699l-1.1258,-0.96412s-32.415,-20.436 -42.156,-36.186c-3.716,-6.0088 -5.49,-13.498 -5.167,-20.555c0.86691,-18.943 18.849,-53.673 18.849,-53.673l0.4965,-1.4058l-1.4577,-0.27134s-38.377,-1.4982 -54.727,-10.285c-6.1563,-3.3084 -11.385,-8.8425 -14.6,-15.048c-8.7467,-16.88 -10.539,-56.052 -10.539,-56.052l-0.26846,-1.4606l-1.3942,0.48784s-33.966,17.844 -52.507,18.445c-7.3552,0.23855 -15.053,-1.9982 -21.26,-5.9522c-16.477,-10.497 -38.175,-44.474 -38.175,-44.474l-0.9699,-1.1258l-0.96412,1.1258s-21.638,34.079 -38.181,44.477c-5.0801,3.1929 -11.396,4.8726 -17.392,4.6416c-19.515,-0.75177 -55.278,-19.418 -55.278,-19.418l-1.3971,-0.49072l-0.27423,1.4577s-1.6896,40.323 -10.825,57.588c-2.6373,4.9842 -6.9981,9.3096 -11.988,11.936c-16.824,8.8554 -56.055,10.536 -56.055,10.536l-1.4606,0.27422l0.49649,1.3971s17.839,33.911 18.414,52.423c0.21868,7.0413 -1.9598,14.4 -5.753,20.336c-10.222,15.998 -43.218,37.096 -43.218,37.096l-1.1229,0.96701l1.1229,0.96413s32.4,20.421 42.127,36.166c3.7301,6.0379 5.5008,13.564 5.1728,20.654c-0.87518,18.917 -18.832,53.601 -18.832,53.601l-0.49072,1.3971l1.4548,0.27422s38.272,1.4909 54.574,10.259c6.2397,3.3561 11.534,8.9725 14.791,15.264c8.7113,16.827 10.499,55.867 10.499,55.867l0.27712,1.4606l1.4,-0.49938s33.812,-17.784 52.27,-18.359c7.1269,-0.22189 14.575,1.9808 20.584,5.8194c15.954,10.192 36.995,43.094 36.995,43.094l0.9699,1.1287l0.96701,-1.1287s20.382,-32.329 36.091,-42.043c6.0797,-3.7597 13.657,-5.5552 20.798,-5.2276c18.889,0.86639 53.517,18.806 53.517,18.806l1.4116,0.49072l0.26268,-1.4606s1.4982,-38.247 10.256,-54.542c3.3576,-6.2472 8.9727,-11.554 15.27,-14.817c16.824,-8.7166 55.867,-10.496 55.867,-10.496l1.4577,-0.28289l-0.48784,-1.3971s-17.808,-33.857 -18.39,-52.34c-0.22333,-7.0805 1.9556,-14.483 5.7674,-20.454l-0.00013,-0.00039z" fill="#ffc800" stroke-width="10" stroke-miterlimit="4" stroke="#ffa900"/>
  </g>
  <path id="path4808" d="m264.05,156.12c-51.746,-8.1518 -100.3,27.645 -108.1,79.746c-8.1519,51.746 27.645,100.3 79.746,108.1c52.101,7.7974 100.3,-27.645 108.45,-79.746c7.7974,-51.746 -28,-100.3 -80.101,-108.1l0.005,0z" fill="#ff9d00" stroke-width="6.956522" stroke-miterlimit="4" stroke="#ff9b00"/>
  <g stroke="null" id="svg_76">
   <path stroke="null" d="m443.544057,363.469515l0,-175.338633c0,-18.280186 -15.241241,-33.096299 -34.045953,-33.096299l0,0c-18.804722,0 -34.045953,14.816113 -34.045953,33.096299l0,175.338633c-18.957922,12.024996 -30.805912,33.763743 -27.946055,57.979195c3.262734,27.640923 26.408312,50.063652 54.859374,53.130576c37.660503,4.059813 69.550212,-24.496763 69.550212,-60.290412c0,-21.291946 -11.303251,-39.991346 -28.371624,-50.819349l0,-0.00001z" fill="#D0E8F9" id="svg_44"/>
   <path stroke="null" d="m415.172422,387.265755l0,-116.394144c0,-3.050373 -2.542092,-5.516053 -5.674319,-5.516053s-5.674329,2.46568 -5.674329,5.516053l0,116.394144c-12.948807,2.553933 -22.697305,13.679796 -22.697305,27.023119c0,15.229813 12.704813,27.580246 28.371634,27.580246s28.371624,-12.350433 28.371624,-27.580246c0,-13.343323 -9.748489,-24.469186 -22.697305,-27.023119z" fill="#E57E25" id="svg_45"/>
   <g stroke="null" id="svg_46" transform="matrix(5.674325527332207,0,0,5.516048703839188,-124.07281305774563,169.41299774742563) ">
    <path stroke="null" d="m90.032483,2.39335l-2,0c-0.552,0 -1,0.447 -1,1s0.448,1 1,1l2,0c0.552,0 1,-0.447 1,-1s-0.448,-1 -1,-1z" fill="#FFFFFF" id="svg_47"/>
    <path stroke="null" d="m90.032483,7.39335l-2,0c-0.552,0 -1,0.447 -1,1s0.448,1 1,1l2,0c0.552,0 1,-0.447 1,-1s-0.448,-1 -1,-1z" fill="#FFFFFF" id="svg_48"/>
    <path stroke="null" d="m90.032483,12.39335l-2,0c-0.552,0 -1,0.447 -1,1s0.448,1 1,1l2,0c0.552,0 1,-0.447 1,-1s-0.448,-1 -1,-1z" fill="#FFFFFF" id="svg_49"/>
    <path stroke="null" d="m90.032483,17.39335l-2,0c-0.552,0 -1,0.447 -1,1s0.448,1 1,1l2,0c0.552,0 1,-0.447 1,-1s-0.448,-1 -1,-1z" fill="#FFFFFF" id="svg_50"/>
    <path stroke="null" d="m90.032483,22.39335l-2,0c-0.552,0 -1,0.447 -1,1s0.448,1 1,1l2,0c0.552,0 1,-0.447 1,-1s-0.448,-1 -1,-1z" fill="#FFFFFF" id="svg_51"/>
    <path stroke="null" d="m90.032483,27.39335l-2,0c-0.552,0 -1,0.447 -1,1s0.448,1 1,1l2,0c0.552,0 1,-0.447 1,-1s-0.448,-1 -1,-1z" fill="#FFFFFF" id="svg_52"/>
    <path stroke="null" d="m90.032483,32.39335l-2,0c-0.552,0 -1,0.447 -1,1s0.448,1 1,1l2,0c0.552,0 1,-0.447 1,-1s-0.448,-1 -1,-1z" fill="#FFFFFF" id="svg_53"/>
    <path stroke="null" d="m98.032483,6.39335l2,0c0.552,0 1,-0.447 1,-1s-0.448,-1 -1,-1l-2,0c-0.552,0 -1,0.447 -1,1s0.447,1 1,1z" fill="#FFFFFF" id="svg_54"/>
    <path stroke="null" d="m100.032483,9.39335l-2,0c-0.552,0 -1,0.447 -1,1s0.448,1 1,1l2,0c0.552,0 1,-0.447 1,-1s-0.448,-1 -1,-1z" fill="#FFFFFF" id="svg_55"/>
    <path stroke="null" d="m100.032483,14.39335l-2,0c-0.552,0 -1,0.447 -1,1s0.448,1 1,1l2,0c0.552,0 1,-0.447 1,-1s-0.448,-1 -1,-1z" fill="#FFFFFF" id="svg_56"/>
    <path stroke="null" d="m100.032483,19.39335l-2,0c-0.552,0 -1,0.447 -1,1s0.448,1 1,1l2,0c0.552,0 1,-0.447 1,-1s-0.448,-1 -1,-1z" fill="#FFFFFF" id="svg_57"/>
    <path stroke="null" d="m100.032483,24.39335l-2,0c-0.552,0 -1,0.447 -1,1s0.448,1 1,1l2,0c0.552,0 1,-0.447 1,-1s-0.448,-1 -1,-1z" fill="#FFFFFF" id="svg_58"/>
    <path stroke="null" d="m100.032483,29.39335l-2,0c-0.552,0 -1,0.447 -1,1s0.448,1 1,1l2,0c0.552,0 1,-0.447 1,-1s-0.448,-1 -1,-1z" fill="#FFFFFF" id="svg_59"/>
   </g>
   <path stroke="null" d="m409.498103,480.481463l0,0c-2.570468,0 -5.186333,-0.143417 -7.762484,-0.419223c-31.123669,-3.353757 -56.306332,-27.740203 -59.869803,-57.984699c-2.848511,-24.176839 7.796524,-47.465602 27.912005,-61.509459l0,-172.4372c0,-21.286433 17.817383,-38.612342 39.720282,-38.612342s39.720272,17.32591 39.720272,38.612342l0,172.4372c17.823066,12.449723 28.371634,32.307493 28.371634,53.720792c0,17.678943 -7.081564,34.304309 -19.945261,46.803672c-12.858013,12.499373 -29.960436,19.388916 -48.146645,19.388916zm0,-319.930826c-15.644118,0 -28.371634,12.372496 -28.371634,27.580246l0,178.322816l-2.576141,1.63827c-18.152169,11.51751 -27.889311,31.717276 -25.409627,52.727912c2.967671,25.180756 23.928628,45.485336 49.848944,48.276452c17.386139,1.908553 34.392096,-3.899847 46.631616,-15.797956c10.718798,-10.419816 16.62009,-24.276129 16.62009,-39.009502c0,-18.68285 -9.646349,-35.953606 -25.795483,-46.196906l-2.576141,-1.632747l0,-178.328339c0,-15.20775 -12.727507,-27.580246 -28.371624,-27.580246z" fill="#CAD1D8" id="svg_60"/>
   <g stroke="null" id="svg_61" transform="matrix(5.674325527332207,0,0,5.516048703839188,-124.07281305774563,169.41299774742563) "/>
   <g stroke="null" id="svg_62" transform="matrix(5.674325527332207,0,0,5.516048703839188,-124.07281305774563,169.41299774742563) "/>
   <g stroke="null" id="svg_63" transform="matrix(5.674325527332207,0,0,5.516048703839188,-124.07281305774563,169.41299774742563) "/>
   <g stroke="null" id="svg_64" transform="matrix(5.674325527332207,0,0,5.516048703839188,-124.07281305774563,169.41299774742563) "/>
   <g stroke="null" id="svg_65" transform="matrix(5.674325527332207,0,0,5.516048703839188,-124.07281305774563,169.41299774742563) "/>
   <g stroke="null" id="svg_66" transform="matrix(5.674325527332207,0,0,5.516048703839188,-124.07281305774563,169.41299774742563) "/>
   <g stroke="null" id="svg_67" transform="matrix(5.674325527332207,0,0,5.516048703839188,-124.07281305774563,169.41299774742563) "/>
   <g stroke="null" id="svg_68" transform="matrix(5.674325527332207,0,0,5.516048703839188,-124.07281305774563,169.41299774742563) "/>
   <g stroke="null" id="svg_69" transform="matrix(5.674325527332207,0,0,5.516048703839188,-124.07281305774563,169.41299774742563) "/>
   <g stroke="null" id="svg_70" transform="matrix(5.674325527332207,0,0,5.516048703839188,-124.07281305774563,169.41299774742563) "/>
   <g stroke="null" id="svg_71" transform="matrix(5.674325527332207,0,0,5.516048703839188,-124.07281305774563,169.41299774742563) "/>
   <g stroke="null" id="svg_72" transform="matrix(5.674325527332207,0,0,5.516048703839188,-124.07281305774563,169.41299774742563) "/>
   <g stroke="null" id="svg_73" transform="matrix(5.674325527332207,0,0,5.516048703839188,-124.07281305774563,169.41299774742563) "/>
   <g stroke="null" id="svg_74" transform="matrix(5.674325527332207,0,0,5.516048703839188,-124.07281305774563,169.41299774742563) "/>
   <g stroke="null" id="svg_75" transform="matrix(5.674325527332207,0,0,5.516048703839188,-124.07281305774563,169.41299774742563) "/>
  </g>
 </g>
</svg>