<svg height="100%" width="100%" version="1.1" viewBox="0 0 500 500" xmlns="http://www.w3.org/2000/svg">
 <metadata id="metadata7">image/svg+xml</metadata>

 <g>
  <title>background</title>
  <rect fill="none" id="canvas_background" height="402" width="582" y="-1" x="-1"/>
 </g>
 <g>
  <title>Layer 1</title>
  <g stroke="null" transform="matrix(5.485551846403503,0,0,5.4827152649583875,-106.38729389670692,139.8762384422908) " id="svg_100"/>
  <g stroke="null" transform="matrix(5.485551846403503,0,0,5.4827152649583875,-106.38729389670692,139.8762384422908) " id="svg_101"/>
  <g stroke="null" transform="matrix(5.485551846403503,0,0,5.4827152649583875,-106.38729389670692,139.8762384422908) " id="svg_102"/>
  <g stroke="null" transform="matrix(5.485551846403503,0,0,5.4827152649583875,-106.38729389670692,139.8762384422908) " id="svg_103"/>
  <g stroke="null" transform="matrix(5.485551846403503,0,0,5.4827152649583875,-106.38729389670692,139.8762384422908) " id="svg_104"/>
  <g stroke="null" transform="matrix(5.485551846403503,0,0,5.4827152649583875,-106.38729389670692,139.8762384422908) " id="svg_105"/>
  <g stroke="null" transform="matrix(5.485551846403503,0,0,5.4827152649583875,-106.38729389670692,139.8762384422908) " id="svg_106"/>
  <g stroke="null" transform="matrix(5.485551846403503,0,0,5.4827152649583875,-106.38729389670692,139.8762384422908) " id="svg_107"/>
  <g stroke="null" transform="matrix(5.485551846403503,0,0,5.4827152649583875,-106.38729389670692,139.8762384422908) " id="svg_108"/>
  <g stroke="null" transform="matrix(5.485551846403503,0,0,5.4827152649583875,-106.38729389670692,139.8762384422908) " id="svg_109"/>
  <g stroke="null" transform="matrix(5.485551846403503,0,0,5.4827152649583875,-106.38729389670692,139.8762384422908) " id="svg_110"/>
  <g stroke="null" transform="matrix(5.485551846403503,0,0,5.4827152649583875,-106.38729389670692,139.8762384422908) " id="svg_111"/>
  <g stroke="null" transform="matrix(5.485551846403503,0,0,5.4827152649583875,-106.38729389670692,139.8762384422908) " id="svg_112"/>
  <g stroke="null" transform="matrix(5.485551846403503,0,0,5.4827152649583875,-106.38729389670692,139.8762384422908) " id="svg_113"/>
  <g stroke="null" transform="matrix(5.485551846403503,0,0,5.4827152649583875,-106.38729389670692,139.8762384422908) " id="svg_114"/>
  <g stroke="null" id="svg_137">
   <path stroke="null" id="svg_120" fill="#C9E3F7" d="m390.370924,265.24471l-42.907384,21.820267l-15.395738,-8.143134l15.629739,-7.079441l-10.067765,-18.65249l-29.202431,13.228588l-19.052639,-10.077704c0.825362,-2.990107 1.267293,-6.118273 1.267293,-9.340808s-0.441931,-6.350701 -1.267293,-9.340808l19.052639,-10.077704l29.202431,13.228588l10.067765,-18.65249l-15.629739,-7.079441l15.395738,-8.143134l42.907384,21.820267l11.024752,-18.192877l-30.991775,-15.76083l25.248578,-13.353831l-11.356678,-18.019866l-25.248578,13.353831l0.596448,-32.468264l-22.710812,-0.349516l-0.825362,44.951801l-15.395738,8.143134l1.122314,-15.939083l-22.666936,-1.339228l-2.096471,29.782236l-19.07871,10.091102c-4.880319,-4.342733 -10.913475,-7.598472 -17.634644,-9.347216l0,-20.161815l27.10596,-16.555395l-12.599172,-17.314427l-14.506788,8.859641l0,-16.285686l42.081386,-23.130369l-11.686695,-17.843361l-30.395327,16.706852l0,-26.708828l-22.713355,0l0,26.708828l-30.395327,-16.706852l-11.686059,17.843361l42.081386,23.130369l0,16.285103l-14.506788,-8.859641l-12.599172,17.313262l27.10596,16.555395l0,20.161815c-6.721169,1.748744 -12.753689,5.004483 -17.634644,9.347216l-19.07871,-10.091102l-2.096471,-29.782236l-22.666936,1.339228l1.122314,15.939083l-15.395738,-8.143134l-0.825362,-44.951801l-22.710812,0.349516l0.596448,32.468264l-25.248578,-13.353249l-11.356678,18.019866l25.248578,13.354414l-30.991775,15.761412l11.024752,18.192877l42.907384,-21.820267l15.395738,8.143134l-15.629739,7.079441l10.067765,18.65249l29.202431,-13.228588l19.052639,10.077704c-0.825362,2.990107 -1.267293,6.118273 -1.267293,9.340808s0.441931,6.350701 1.267293,9.340808l-19.052639,10.077704l-29.202431,-13.228588l-10.067765,18.65249l15.629739,7.079441l-15.395738,8.143134l-42.90802,-21.820267l-11.024752,18.192877l30.991775,15.76083l-25.248578,13.354996l11.356678,18.019866l25.248578,-13.353831l-0.596448,32.468264l22.710812,0.349516l0.825362,-44.951801l15.395738,-8.143134l-1.122314,15.939083l22.666936,1.339228l2.096471,-29.782236l19.07871,-10.091102c4.880319,4.342733 10.913475,7.598472 17.634644,9.347216l0,20.161815l-27.10596,16.555395l12.599172,17.313262l14.506788,-8.859059l0,16.285103l-42.081386,23.130369l11.686059,17.843361l30.395327,-16.706852l0,26.708828l22.713991,0l0,-26.708828l30.395327,16.706852l11.686059,-17.843361l-42.081386,-23.130369l0,-16.285103l14.506788,8.859641l12.599172,-17.313262l-27.10596,-16.555395l0,-20.161815c6.721169,-1.748744 12.753689,-5.004483 17.634644,-9.347216l19.07871,10.091102l2.096471,29.782236l22.666936,-1.339228l-1.122314,-15.939083l15.395738,8.143134l0.825362,44.951801l22.710812,-0.349516l-0.596448,-32.468264l25.248578,13.353831l11.356678,-18.019866l-25.248578,-13.353831l30.991775,-15.76083l-11.024116,-18.194624zm-141.370923,-0.904663c-10.437206,0 -18.928008,-7.779055 -18.928008,-17.340058s8.491437,-17.340058 18.928008,-17.340058s18.928008,7.779055 18.928008,17.340058s-8.490802,17.340058 -18.928008,17.340058z"/>
   <path stroke="null" id="svg_121" fill="#AED5F3" d="m390.370924,265.24471l-42.907384,21.820267l-15.395738,-8.143134l15.629739,-7.079441l-10.067765,-18.65249l-29.202431,13.228588l-19.052639,-10.077704c0.825362,-2.990107 1.267293,-6.118273 1.267293,-9.340808s-0.441931,-6.350701 -1.267293,-9.340808l19.052639,-10.077704l29.202431,13.228588l10.067765,-18.65249l-15.629739,-7.079441l15.395738,-8.143134l42.907384,21.820267l11.024752,-18.192877l-30.991775,-15.76083l25.248578,-13.353831l-11.356678,-18.019866l-25.248578,13.353831l0.596448,-32.468264l-22.710812,-0.349516l-0.825362,44.951219l-15.395738,8.143134l1.122314,-15.939083l-22.666936,-1.339228l-2.096471,29.782236l-19.07871,10.091102c-4.880319,-4.342733 -10.913475,-7.598472 -17.634644,-9.347216l0,-20.161815l27.10596,-16.555395l-12.599172,-17.313845l-14.506788,8.859641l0,-16.285686l42.081386,-23.130369l-11.686695,-17.843361l-30.395327,16.706852l0,-26.708828l-11.356678,0l0,131.786656c10.437206,0 18.928008,7.779055 18.928008,17.340058s-8.490802,17.340058 -18.928008,17.340058l0,131.786656l11.356678,0l0,-26.708828l30.395327,16.706852l11.686059,-17.843361l-42.081386,-23.130369l0,-16.285103l14.506788,8.859641l12.599172,-17.313262l-27.10596,-16.555395l0,-20.161815c6.721169,-1.748744 12.753689,-5.004483 17.634644,-9.347216l19.07871,10.091102l2.096471,29.782236l22.666936,-1.339228l-1.122314,-15.939083l15.395738,8.143134l0.825362,44.951801l22.710812,-0.349516l-0.596448,-32.468264l25.248578,13.353831l11.356678,-18.019866l-25.248578,-13.353831l30.991775,-15.76083l-11.024116,-18.194624z"/>
   <g stroke="null" transform="matrix(0.6358722015857915,0,0,0.582526227346385,-1360.7853260947088,-1224.3621849649062) " id="svg_122"/>
   <g stroke="null" transform="matrix(0.6358722015857915,0,0,0.582526227346385,-1360.7853260947088,-1224.3621849649062) " id="svg_123"/>
   <g stroke="null" transform="matrix(0.6358722015857915,0,0,0.582526227346385,-1360.7853260947088,-1224.3621849649062) " id="svg_124"/>
   <g stroke="null" transform="matrix(0.6358722015857915,0,0,0.582526227346385,-1360.7853260947088,-1224.3621849649062) " id="svg_125"/>
   <g stroke="null" transform="matrix(0.6358722015857915,0,0,0.582526227346385,-1360.7853260947088,-1224.3621849649062) " id="svg_126"/>
   <g stroke="null" transform="matrix(0.6358722015857915,0,0,0.582526227346385,-1360.7853260947088,-1224.3621849649062) " id="svg_127"/>
   <g stroke="null" transform="matrix(0.6358722015857915,0,0,0.582526227346385,-1360.7853260947088,-1224.3621849649062) " id="svg_128"/>
   <g stroke="null" transform="matrix(0.6358722015857915,0,0,0.582526227346385,-1360.7853260947088,-1224.3621849649062) " id="svg_129"/>
   <g stroke="null" transform="matrix(0.6358722015857915,0,0,0.582526227346385,-1360.7853260947088,-1224.3621849649062) " id="svg_130"/>
   <g stroke="null" transform="matrix(0.6358722015857915,0,0,0.582526227346385,-1360.7853260947088,-1224.3621849649062) " id="svg_131"/>
   <g stroke="null" transform="matrix(0.6358722015857915,0,0,0.582526227346385,-1360.7853260947088,-1224.3621849649062) " id="svg_132"/>
   <g stroke="null" transform="matrix(0.6358722015857915,0,0,0.582526227346385,-1360.7853260947088,-1224.3621849649062) " id="svg_133"/>
   <g stroke="null" transform="matrix(0.6358722015857915,0,0,0.582526227346385,-1360.7853260947088,-1224.3621849649062) " id="svg_134"/>
   <g stroke="null" transform="matrix(0.6358722015857915,0,0,0.582526227346385,-1360.7853260947088,-1224.3621849649062) " id="svg_135"/>
   <g stroke="null" transform="matrix(0.6358722015857915,0,0,0.582526227346385,-1360.7853260947088,-1224.3621849649062) " id="svg_136"/>
  </g>
  <g stroke="null" id="svg_138">
   <path stroke="null" id="svg_81" fill="#D0E8F9" d="m443.648827,363.469534l0,-175.338636c0,-18.280185 -15.293792,-33.096291 -34.163348,-33.096291l0,0c-18.869556,0 -34.163348,14.816106 -34.163348,33.096291l0,175.338636c-19.023291,12.024986 -30.912136,33.763733 -28.042415,57.979187c3.273988,27.640919 26.49937,50.063657 55.048541,53.13058c37.796051,4.059812 69.790026,-24.496772 69.790026,-60.290411c0,-21.291947 -11.342232,-39.991352 -28.469457,-50.819355z"/>
   <path stroke="null" id="svg_82" fill="#0096E6" d="m415.17937,387.265768l0,-33.653412c0,-3.050375 -2.545169,-5.516049 -5.693891,-5.516049s-5.693891,2.465674 -5.693891,5.516049l0,33.653412c-12.99346,2.55393 -22.775565,13.6798 -22.775565,27.023122c0,15.22981 12.748623,27.580243 28.469457,27.580243s28.469457,-12.350433 28.469457,-27.580243c0,-13.343321 -9.782105,-24.469191 -22.775565,-27.023122z"/>
   <g stroke="null" transform="matrix(5.693891328207448,0,0,5.516048569291419,-128.5443922647222,137.80545836717954) " id="svg_83">
    <path stroke="null" id="svg_84" fill="#FFFFFF" d="m90.492471,8.123458l-2,0c-0.553,0 -1,0.447 -1,1s0.447,1 1,1l2,0c0.553,0 1,-0.447 1,-1s-0.447,-1 -1,-1z"/>
    <path stroke="null" id="svg_85" fill="#FFFFFF" d="m90.492471,13.123458l-2,0c-0.553,0 -1,0.447 -1,1s0.447,1 1,1l2,0c0.553,0 1,-0.447 1,-1s-0.447,-1 -1,-1z"/>
    <path stroke="null" id="svg_86" fill="#FFFFFF" d="m90.492471,18.123458l-2,0c-0.553,0 -1,0.447 -1,1s0.447,1 1,1l2,0c0.553,0 1,-0.447 1,-1s-0.447,-1 -1,-1z"/>
    <path stroke="null" id="svg_87" fill="#FFFFFF" d="m90.492471,23.123458l-2,0c-0.553,0 -1,0.447 -1,1s0.447,1 1,1l2,0c0.553,0 1,-0.447 1,-1s-0.447,-1 -1,-1z"/>
    <path stroke="null" id="svg_88" fill="#FFFFFF" d="m90.492471,28.123458l-2,0c-0.553,0 -1,0.447 -1,1s0.447,1 1,1l2,0c0.553,0 1,-0.447 1,-1s-0.447,-1 -1,-1z"/>
    <path stroke="null" id="svg_89" fill="#FFFFFF" d="m90.492471,33.123458l-2,0c-0.553,0 -1,0.447 -1,1s0.447,1 1,1l2,0c0.553,0 1,-0.447 1,-1s-0.447,-1 -1,-1z"/>
    <path stroke="null" id="svg_90" fill="#FFFFFF" d="m90.492471,38.123458l-2,0c-0.553,0 -1,0.447 -1,1s0.447,1 1,1l2,0c0.553,0 1,-0.447 1,-1s-0.447,-1 -1,-1z"/>
    <path stroke="null" id="svg_91" fill="#FFFFFF" d="m98.492471,12.123458l2,0c0.553,0 1,-0.447 1,-1s-0.447,-1 -1,-1l-2,0c-0.553,0 -1,0.447 -1,1s0.447,1 1,1z"/>
    <path stroke="null" id="svg_92" fill="#FFFFFF" d="m100.492471,15.123458l-2,0c-0.553,0 -1,0.447 -1,1s0.447,1 1,1l2,0c0.553,0 1,-0.447 1,-1s-0.447,-1 -1,-1z"/>
    <path stroke="null" id="svg_93" fill="#FFFFFF" d="m100.492471,20.123458l-2,0c-0.553,0 -1,0.447 -1,1s0.447,1 1,1l2,0c0.553,0 1,-0.447 1,-1s-0.447,-1 -1,-1z"/>
    <path stroke="null" id="svg_94" fill="#FFFFFF" d="m100.492471,25.123458l-2,0c-0.553,0 -1,0.447 -1,1s0.447,1 1,1l2,0c0.553,0 1,-0.447 1,-1s-0.447,-1 -1,-1z"/>
    <path stroke="null" id="svg_95" fill="#FFFFFF" d="m100.492471,30.123458l-2,0c-0.553,0 -1,0.447 -1,1s0.447,1 1,1l2,0c0.553,0 1,-0.447 1,-1s-0.447,-1 -1,-1z"/>
    <path stroke="null" id="svg_96" fill="#FFFFFF" d="m100.492471,35.123458l-2,0c-0.553,0 -1,0.447 -1,1s0.447,1 1,1l2,0c0.553,0 1,-0.447 1,-1s-0.447,-1 -1,-1z"/>
   </g>
   <path stroke="null" id="svg_99" fill="#CAD1D8" d="m409.485479,480.481472l0,0c-2.579333,0 -5.198523,-0.143417 -7.789243,-0.41922c-31.2253,-3.353758 -56.49479,-27.740208 -60.076247,-57.984703c-2.858333,-24.176841 7.823407,-47.460082 28.008251,-61.509458l0,-172.437194c0,-21.286431 17.884513,-38.61234 39.857239,-38.61234s39.857239,17.325909 39.857239,38.61234l0,172.437194c17.884513,12.449722 28.469457,32.307496 28.469457,53.720797c0,17.678936 -7.105976,34.304306 -20.014028,46.803672c-12.902358,12.499366 -30.063746,19.388911 -48.312668,19.388911zm0,-319.930817c-15.698058,0 -28.469457,12.372497 -28.469457,27.580243l0,178.322818l-2.579333,1.63275c-18.214758,11.523025 -27.985476,31.728311 -25.502939,52.733424c2.983599,25.180762 24.022528,45.485337 50.020835,48.276457c17.446083,1.908553 34.510675,-3.899846 46.798093,-15.797963c10.750067,-10.419816 16.671714,-24.27613 16.671714,-39.009495c0,-18.682857 -9.673921,-35.953605 -25.890124,-46.196907l-2.579333,-1.63275l0,-178.328334c0,-15.207746 -12.771398,-27.580243 -28.469457,-27.580243z"/>
  </g>
 </g>
</svg>