<svg height="100%" width="100%" version="1.1" viewBox="0 0 500 500" xmlns="http://www.w3.org/2000/svg">
 <defs>
  <linearGradient y2="0.658003" x2="0.939474" y1="0.29745" x1="0.166314" id="SVGID_1_">
   <stop stop-color="#FFFFFF" stop-opacity="0.2" offset="0"/>
   <stop stop-color="#FFFFFF" stop-opacity="0" offset="1"/>
  </linearGradient>
 </defs>
 <g>
  <title>background</title>
  <rect fill="none" id="canvas_background" height="502" width="502" y="-1" x="-1"/>
 </g>
 <g>
  <title>Layer 1</title>
  <path id="svg_7" fill="url(#SVGID_1_)"/>
  <g id="svg_8"/>
  <g id="svg_9"/>
  <g id="svg_10"/>
  <g id="svg_11"/>
  <g id="svg_12"/>
  <g id="svg_13"/>
  <g id="svg_14"/>
  <g id="svg_15"/>
  <g id="svg_16"/>
  <g id="svg_17"/>
  <g id="svg_18"/>
  <g id="svg_19"/>
  <g id="svg_20"/>
  <g id="svg_21"/>
  <g id="svg_22"/>
  <metadata transform="matrix(0.0979001478389172,0,0,0.0979001478389172,0,0) " id="svg_74">image/svg+xml</metadata>
  <metadata transform="matrix(0.0979001478389172,0,0,0.0979001478389172,0,0) " id="svg_130">image/svg+xml</metadata>
  <metadata stroke="null" transform="translate(-58.339107513427734,-94.69953918457031) translate(-301.4187316894531,-332.4558410644531) translate(2147.008544921875,0) translate(0,2147.008544921875) matrix(0.5142348169488586,0,0,0.49630652373156187,-1761.6418796454275,-1721.2622640649024) " id="svg_127">image/svg+xml</metadata>
  <metadata stroke="null" transform="translate(-58.339107513427734,-94.69953918457031) translate(-301.4187316894531,-332.4558410644531) translate(2147.008544921875,0) translate(0,2147.008544921875) matrix(0.5142348169488586,0,0,0.49630652373156187,-1761.6418796454275,-1721.2622640649024) " id="svg_126">image/svg+xml</metadata>
  <g transform="matrix(1.0917088459674629,0,0,0.9375454928718354,-1956.6321840761432,-1668.7975713982457) " stroke="null" id="svg_106">
   <g stroke="null" id="svg_122" transform="matrix(0.8348303186207112,0,0,0.8514699177866906,-1117.7333626034203,-1445.782840609819) ">
    <path stroke="null" d="m3903.237169,4038.316417c-35.297,0 -64,28.711 -64,64c0,8.836 7.156,16 16,16s16,-7.164 16,-16c0,-17.649 14.359,-32 32,-32s32,14.351 32,32s-14.359,32 -32,32l-366.734,0c-8.844,0 -16,7.164 -16,16c0,8.836 7.156,16 16,16l366.734,0c35.297,0 64,-28.711 64,-64s-28.703,-64 -64,-64z" fill="#7B572D" id="svg_125"/>
    <path stroke="null" d="m3535.237169,4102.316417l208,0c35.297,0 64,-28.711 64,-64s-28.703,-64 -64,-64s-64,28.711 -64,64c0,8.836 7.156,16 16,16s16,-7.164 16,-16c0,-17.649 14.359,-32 32,-32s32,14.351 32,32s-14.359,32 -32,32l-208,0c-8.844,0 -16,7.164 -16,16s7.156,16 16,16z" fill="#7B572D" id="svg_124"/>
    <path stroke="null" d="m3743.237169,4198.316417l-208,0c-8.844,0 -16,7.164 -16,16s7.156,16 16,16l208,0c17.641,0 32,14.351 32,32s-14.359,32 -32,32s-32,-14.351 -32,-32c0,-8.836 -7.156,-16 -16,-16s-16,7.164 -16,16c0,35.289 28.703,64 64,64s64,-28.711 64,-64s-28.703,-64 -64,-64z" fill="#7B572D" id="svg_123"/>
   </g>
   <g stroke="null" id="svg_121" transform="matrix(0.8348303186207112,0,0,0.8514699177866906,-1117.7333626034203,-1445.782840609819) "/>
   <g stroke="null" id="svg_120" transform="matrix(0.8348303186207112,0,0,0.8514699177866906,-1117.7333626034203,-1445.782840609819) "/>
   <g stroke="null" id="svg_119" transform="matrix(0.8348303186207112,0,0,0.8514699177866906,-1117.7333626034203,-1445.782840609819) "/>
   <g stroke="null" id="svg_118" transform="matrix(0.8348303186207112,0,0,0.8514699177866906,-1117.7333626034203,-1445.782840609819) "/>
   <g stroke="null" id="svg_117" transform="matrix(0.8348303186207112,0,0,0.8514699177866906,-1117.7333626034203,-1445.782840609819) "/>
   <g stroke="null" id="svg_116" transform="matrix(0.8348303186207112,0,0,0.8514699177866906,-1117.7333626034203,-1445.782840609819) "/>
   <g stroke="null" id="svg_115" transform="matrix(0.8348303186207112,0,0,0.8514699177866906,-1117.7333626034203,-1445.782840609819) "/>
   <g stroke="null" id="svg_114" transform="matrix(0.8348303186207112,0,0,0.8514699177866906,-1117.7333626034203,-1445.782840609819) "/>
   <g stroke="null" id="svg_113" transform="matrix(0.8348303186207112,0,0,0.8514699177866906,-1117.7333626034203,-1445.782840609819) "/>
   <g stroke="null" id="svg_112" transform="matrix(0.8348303186207112,0,0,0.8514699177866906,-1117.7333626034203,-1445.782840609819) "/>
   <g stroke="null" id="svg_111" transform="matrix(0.8348303186207112,0,0,0.8514699177866906,-1117.7333626034203,-1445.782840609819) "/>
   <g stroke="null" id="svg_110" transform="matrix(0.8348303186207112,0,0,0.8514699177866906,-1117.7333626034203,-1445.782840609819) "/>
   <g stroke="null" id="svg_109" transform="matrix(0.8348303186207112,0,0,0.8514699177866906,-1117.7333626034203,-1445.782840609819) "/>
   <g stroke="null" id="svg_108" transform="matrix(0.8348303186207112,0,0,0.8514699177866906,-1117.7333626034203,-1445.782840609819) "/>
   <g stroke="null" id="svg_107" transform="matrix(0.8348303186207112,0,0,0.8514699177866906,-1117.7333626034203,-1445.782840609819) "/>
  </g>
  <circle transform="matrix(0.47315130822060264,0,0,0.4601304760004586,-862.3995253530447,-172.35987783038217) " stroke="null" id="svg_154" fill="#FFC107" r="32" cy="1173.725845" cx="2643.300821"/>
  <circle transform="matrix(0.47315130822060264,0,0,0.4601304760004586,-862.3995253530447,-172.35987783038217) " stroke="null" id="svg_155" fill="#FFC107" r="32" cy="1099.458811" cx="2756.804067"/>
  <circle transform="matrix(0.47315130822060264,0,0,0.4601304760004586,-862.3995253530447,-172.35987783038217) " stroke="null" id="svg_156" fill="#FFC107" r="32" cy="990.643531" cx="2820.208732"/>
  <circle transform="matrix(0.47315130822060264,0,0,0.4601304760004586,-862.3995253530447,-172.35987783038217) " stroke="null" id="svg_157" fill="#FFC107" r="32" cy="746.859362" cx="2618.236623"/>
  <g stroke="null" transform="matrix(0.47315130822060264,0,0,0.4601304760004586,-862.3995253530447,-172.35987783038217) " id="svg_158"/>
  <g stroke="null" transform="matrix(0.47315130822060264,0,0,0.4601304760004586,-862.3995253530447,-172.35987783038217) " id="svg_159"/>
  <g stroke="null" transform="matrix(0.47315130822060264,0,0,0.4601304760004586,-862.3995253530447,-172.35987783038217) " id="svg_160"/>
  <g stroke="null" transform="matrix(0.47315130822060264,0,0,0.4601304760004586,-862.3995253530447,-172.35987783038217) " id="svg_161"/>
  <g stroke="null" transform="matrix(0.47315130822060264,0,0,0.4601304760004586,-862.3995253530447,-172.35987783038217) " id="svg_162"/>
  <g stroke="null" transform="matrix(0.47315130822060264,0,0,0.4601304760004586,-862.3995253530447,-172.35987783038217) " id="svg_163"/>
  <g stroke="null" transform="matrix(0.47315130822060264,0,0,0.4601304760004586,-862.3995253530447,-172.35987783038217) " id="svg_164"/>
  <g stroke="null" transform="matrix(0.47315130822060264,0,0,0.4601304760004586,-862.3995253530447,-172.35987783038217) " id="svg_165"/>
  <g stroke="null" transform="matrix(0.47315130822060264,0,0,0.4601304760004586,-862.3995253530447,-172.35987783038217) " id="svg_166"/>
  <g stroke="null" transform="matrix(0.47315130822060264,0,0,0.4601304760004586,-862.3995253530447,-172.35987783038217) " id="svg_167"/>
  <g stroke="null" transform="matrix(0.47315130822060264,0,0,0.4601304760004586,-862.3995253530447,-172.35987783038217) " id="svg_168"/>
  <g stroke="null" transform="matrix(0.47315130822060264,0,0,0.4601304760004586,-862.3995253530447,-172.35987783038217) " id="svg_169"/>
  <g stroke="null" transform="matrix(0.47315130822060264,0,0,0.4601304760004586,-862.3995253530447,-172.35987783038217) " id="svg_170"/>
  <g stroke="null" transform="matrix(0.47315130822060264,0,0,0.4601304760004586,-862.3995253530447,-172.35987783038217) " id="svg_171"/>
  <g stroke="null" transform="matrix(0.47315130822060264,0,0,0.4601304760004586,-862.3995253530447,-172.35987783038217) " id="svg_172"/>
  <circle transform="matrix(0.47315130822060264,0,0,0.4601304760004586,-862.3995253530447,-172.35987783038217) " stroke="null" id="svg_174" fill="#FFC107" r="32" cy="666.447388" cx="2780.975262"/>
  <circle transform="matrix(0.47315130822060264,0,0,0.4601304760004586,-862.3995253530447,-172.35987783038217) " stroke="null" id="svg_175" fill="#FFC107" r="32" cy="572.995634" cx="2728.138041"/>
  <circle transform="matrix(0.47315130822060264,0,0,0.4601304760004586,-862.3995253530447,-172.35987783038217) " stroke="null" id="svg_176" fill="#FFC107" r="32" cy="749.032659" cx="2721.797575"/>
  <circle transform="matrix(0.47315130822060264,0,0,0.4601304760004586,-862.3995253530447,-172.35987783038217) " stroke="null" id="svg_177" fill="#FFC107" r="32" cy="751.205955" cx="2512.562182"/>
  <circle transform="matrix(0.47315130822060264,0,0,0.4601304760004586,-862.3995253530447,-172.35987783038217) " stroke="null" id="svg_178" fill="#FFC107" r="32" cy="666.447388" cx="2671.073843"/>
  <circle transform="matrix(0.47315130822060264,0,0,0.4601304760004586,-862.3995253530447,-172.35987783038217) " stroke="null" id="svg_179" fill="#FFC107" r="32" cy="862.044082" cx="2823.245038"/>
  <circle transform="matrix(0.47315130822060264,0,0,0.4601304760004586,-862.3995253530447,-172.35987783038217) " stroke="null" id="svg_180" fill="#FFC107" r="32" cy="746.859362" cx="2821.13155"/>
 </g>
</svg>