<svg height="100%" width="100%" version="1.1" viewBox="0 0 500 500" xmlns="http://www.w3.org/2000/svg">
 <defs>
  <linearGradient id="SVGID_1_" x1="0.166314" y1="0.29745" x2="0.939474" y2="0.658003">
   <stop offset="0" stop-opacity="0.2" stop-color="#FFFFFF"/>
   <stop offset="1" stop-opacity="0" stop-color="#FFFFFF"/>
  </linearGradient>
 </defs>
 <g>
  <title>background</title>
  <rect x="-1" y="-1" width="502" height="502" id="canvas_background" fill="none"/>
 </g>
 <g>
  <title>Layer 1</title>
  <path fill="url(#SVGID_1_)" id="svg_7"/>
  <g id="svg_8"/>
  <g id="svg_9"/>
  <g id="svg_10"/>
  <g id="svg_11"/>
  <g id="svg_12"/>
  <g id="svg_13"/>
  <g id="svg_14"/>
  <g id="svg_15"/>
  <g id="svg_16"/>
  <g id="svg_17"/>
  <g id="svg_18"/>
  <g id="svg_19"/>
  <g id="svg_20"/>
  <g id="svg_21"/>
  <g id="svg_22"/>
  <metadata id="svg_74">image/svg+xml</metadata>
  <metadata id="svg_130">image/svg+xml</metadata>
  <metadata id="svg_127">image/svg+xml</metadata>
  <metadata id="svg_126">image/svg+xml</metadata>
  <g id="svg_158" transform="matrix(0.47315130822060264,0,0,0.4601304760004586,-862.3995253530447,-172.35987783038217) " stroke="null"/>
  <g id="svg_159" transform="matrix(0.47315130822060264,0,0,0.4601304760004586,-862.3995253530447,-172.35987783038217) " stroke="null"/>
  <g id="svg_160" transform="matrix(0.47315130822060264,0,0,0.4601304760004586,-862.3995253530447,-172.35987783038217) " stroke="null"/>
  <g id="svg_161" transform="matrix(0.47315130822060264,0,0,0.4601304760004586,-862.3995253530447,-172.35987783038217) " stroke="null"/>
  <g id="svg_162" transform="matrix(0.47315130822060264,0,0,0.4601304760004586,-862.3995253530447,-172.35987783038217) " stroke="null"/>
  <g id="svg_163" transform="matrix(0.47315130822060264,0,0,0.4601304760004586,-862.3995253530447,-172.35987783038217) " stroke="null"/>
  <g id="svg_164" transform="matrix(0.47315130822060264,0,0,0.4601304760004586,-862.3995253530447,-172.35987783038217) " stroke="null"/>
  <g id="svg_165" transform="matrix(0.47315130822060264,0,0,0.4601304760004586,-862.3995253530447,-172.35987783038217) " stroke="null"/>
  <g id="svg_166" transform="matrix(0.47315130822060264,0,0,0.4601304760004586,-862.3995253530447,-172.35987783038217) " stroke="null"/>
  <g id="svg_167" transform="matrix(0.47315130822060264,0,0,0.4601304760004586,-862.3995253530447,-172.35987783038217) " stroke="null"/>
  <g id="svg_168" transform="matrix(0.47315130822060264,0,0,0.4601304760004586,-862.3995253530447,-172.35987783038217) " stroke="null"/>
  <g id="svg_169" transform="matrix(0.47315130822060264,0,0,0.4601304760004586,-862.3995253530447,-172.35987783038217) " stroke="null"/>
  <g id="svg_170" transform="matrix(0.47315130822060264,0,0,0.4601304760004586,-862.3995253530447,-172.35987783038217) " stroke="null"/>
  <g id="svg_171" transform="matrix(0.47315130822060264,0,0,0.4601304760004586,-862.3995253530447,-172.35987783038217) " stroke="null"/>
  <g id="svg_172" transform="matrix(0.47315130822060264,0,0,0.4601304760004586,-862.3995253530447,-172.35987783038217) " stroke="null"/>
  <g id="svg_204" transform="matrix(7.716048794028211,0,0,7.716048794028211,0,0) "/>
  <g id="svg_205" transform="matrix(7.716048794028211,0,0,7.716048794028211,0,0) "/>
  <g id="svg_206" transform="matrix(7.716048794028211,0,0,7.716048794028211,0,0) "/>
  <g id="svg_207" transform="matrix(7.716048794028211,0,0,7.716048794028211,0,0) "/>
  <g id="svg_208" transform="matrix(7.716048794028211,0,0,7.716048794028211,0,0) "/>
  <g id="svg_209" transform="matrix(7.716048794028211,0,0,7.716048794028211,0,0) "/>
  <g id="svg_210" transform="matrix(7.716048794028211,0,0,7.716048794028211,0,0) "/>
  <g id="svg_211" transform="matrix(7.716048794028211,0,0,7.716048794028211,0,0) "/>
  <g id="svg_212" transform="matrix(7.716048794028211,0,0,7.716048794028211,0,0) "/>
  <g id="svg_213" transform="matrix(7.716048794028211,0,0,7.716048794028211,0,0) "/>
  <g id="svg_214" transform="matrix(7.716048794028211,0,0,7.716048794028211,0,0) "/>
  <g id="svg_215" transform="matrix(7.716048794028211,0,0,7.716048794028211,0,0) "/>
  <g id="svg_216" transform="matrix(7.716048794028211,0,0,7.716048794028211,0,0) "/>
  <g id="svg_217" transform="matrix(7.716048794028211,0,0,7.716048794028211,0,0) "/>
  <g id="svg_218" transform="matrix(7.716048794028211,0,0,7.716048794028211,0,0) "/>
  <g id="svg_245" transform="matrix(0.6137732670576078,0,0,0.6398254774093335,-1248.3260130780343,-1275.7271519670273) " stroke="null"/>
  <g id="svg_246" transform="matrix(0.6137732670576078,0,0,0.6398254774093335,-1248.3260130780343,-1275.7271519670273) " stroke="null"/>
  <g id="svg_247" transform="matrix(0.6137732670576078,0,0,0.6398254774093335,-1248.3260130780343,-1275.7271519670273) " stroke="null"/>
  <g id="svg_248" transform="matrix(0.6137732670576078,0,0,0.6398254774093335,-1248.3260130780343,-1275.7271519670273) " stroke="null"/>
  <g id="svg_249" transform="matrix(0.6137732670576078,0,0,0.6398254774093335,-1248.3260130780343,-1275.7271519670273) " stroke="null"/>
  <g id="svg_250" transform="matrix(0.6137732670576078,0,0,0.6398254774093335,-1248.3260130780343,-1275.7271519670273) " stroke="null"/>
  <g id="svg_251" transform="matrix(0.6137732670576078,0,0,0.6398254774093335,-1248.3260130780343,-1275.7271519670273) " stroke="null"/>
  <g id="svg_252" transform="matrix(0.6137732670576078,0,0,0.6398254774093335,-1248.3260130780343,-1275.7271519670273) " stroke="null"/>
  <g id="svg_253" transform="matrix(0.6137732670576078,0,0,0.6398254774093335,-1248.3260130780343,-1275.7271519670273) " stroke="null"/>
  <g id="svg_254" transform="matrix(0.6137732670576078,0,0,0.6398254774093335,-1248.3260130780343,-1275.7271519670273) " stroke="null"/>
  <g id="svg_255" transform="matrix(0.6137732670576078,0,0,0.6398254774093335,-1248.3260130780343,-1275.7271519670273) " stroke="null"/>
  <g id="svg_256" transform="matrix(0.6137732670576078,0,0,0.6398254774093335,-1248.3260130780343,-1275.7271519670273) " stroke="null"/>
  <g id="svg_257" transform="matrix(0.6137732670576078,0,0,0.6398254774093335,-1248.3260130780343,-1275.7271519670273) " stroke="null"/>
  <g id="svg_258" transform="matrix(0.6137732670576078,0,0,0.6398254774093335,-1248.3260130780343,-1275.7271519670273) " stroke="null"/>
  <g id="svg_259" transform="matrix(0.6137732670576078,0,0,0.6398254774093335,-1248.3260130780343,-1275.7271519670273) " stroke="null"/>
  <g stroke="null" id="svg_268">
   <path stroke="null" d="m260.592887,439.47122c-0.912456,0 -1.823913,-0.252098 -2.632747,-0.749963c-14.746243,-9.073318 -28.931119,-28.111249 -38.914868,-52.235386c-9.494813,-22.937487 -12.290549,-43.296014 -8.311729,-60.510207c-4.839973,1.215105 -10.005876,1.832161 -15.359912,1.832161c-12.847883,0 -27.212845,-3.530377 -42.694491,-10.492004c-23.097211,-10.383364 -41.347418,-25.135678 -50.07062,-40.475507c-0.855105,-1.503092 -0.970807,-3.344749 -0.312866,-4.9533c0.658941,-1.607512 2.012046,-2.786761 3.639777,-3.170711c4.354053,-1.028422 9.175915,-1.548428 14.329754,-1.548428c11.769422,0 25.290342,2.741392 39.098969,7.927815c-2.986885,-3.784602 -5.826876,-7.62298 -8.443527,-11.408637c-19.788412,-28.629144 -29.022678,-55.691924 -27.446233,-80.438394c0.103622,-1.621212 0.891329,-3.111626 2.147843,-4.06306c0.896361,-0.677163 1.962742,-1.032626 3.04522,-1.032626c0.436617,0 0.876249,0.058013 1.307834,0.174039c22.843696,6.220104 44.405717,23.706425 64.086492,51.974847c-0.083511,-2.882756 -0.12475,-5.481763 -0.12475,-7.942586c0,-48.072126 11.200024,-95.814095 27.869769,-118.803264c0.985903,-1.355414 2.519077,-2.15284 4.143793,-2.15284c1.625732,0 3.157906,0.79637 4.142793,2.153895c16.669746,22.986004 27.870769,70.727989 27.870769,118.803264l-0.006032,1.165549c3.82791,-4.558816 7.904304,-9.081759 12.118528,-13.473905c34.958175,-36.433565 73.528985,-59.071491 105.822222,-62.109295c0.153925,-0.013716 0.310867,-0.021085 0.464776,-0.021085c1.375232,0 2.702178,0.571688 3.683049,1.601165c1.090525,1.145503 1.639812,2.741409 1.499966,4.35418c-2.929517,33.649953 -24.648497,73.833285 -59.586561,110.249968c-3.678001,3.832047 -7.464672,7.570242 -11.256359,11.10906c23.075084,0.179314 47.544512,3.345804 68.903321,8.91194c19.711949,5.138944 35.575877,12.074194 45.878524,20.055802c1.324929,1.027367 2.10862,2.652799 2.112652,4.38265c0.003016,1.728813 -0.775643,3.35741 -2.098556,4.390052c-24.371837,19.022104 -77.216066,28.975111 -116.819034,28.975111c-2.522093,0 -5.14076,-0.048517 -8.244347,-0.153992l0.73742,0.535832c0.245468,0.177204 0.490936,0.354408 0.735403,0.538997c27.464344,20.621176 44.446973,43.233797 50.473029,67.209201c0.397377,1.576915 0.10059,3.256139 -0.807834,4.579901c-0.907441,1.322707 -2.329944,2.151784 -3.881229,2.260425c-1.740418,0.120246 -3.50598,0.181424 -5.25243,0.181424c-22.297425,-0.001055 -46.502274,-9.685099 -71.942492,-28.784208c-3.650858,-2.742464 -7.33289,-5.703263 -10.945508,-8.801174c7.211156,20.858503 9.382143,40.64216 6.113583,55.70564c-0.368202,1.697161 -1.485886,3.108477 -3.006996,3.799357c-0.661957,0.29956 -1.365169,0.448293 -2.066365,0.448293z" fill="#F7931E" id="svg_237"/>
   <g stroke="null" opacity="0.1" id="svg_238" transform="matrix(1.0060199508705823,0,0,1.0547914386415078,-2112.8427062613714,-2371.6534461433153) ">
    <path stroke="null" d="m2339.060248,2593.64806c-9.439,-21.746 -12.218,-41.047 -8.262,-57.367c-4.811,1.152 -9.946,1.737 -15.268,1.737c-12.771,0 -27.05,-3.347 -42.439,-9.948c-15.88,-6.809 -29.449,-15.6 -39.18,-25.185c-4.923,-0.75 -9.673,-1.137 -14.165,-1.137c-5.123,0 -9.916,0.494 -14.244,1.468c-1.618,0.364 -2.963,1.482 -3.618,3.006c-0.654,1.525 -0.539,3.27 0.311,4.696c8.671,14.542 26.811,28.529 49.771,38.373c15.39,6.601 29.669,9.947 42.439,9.947c5.321,0 10.457,-0.584 15.268,-1.737c-3.955,16.32 -1.177,35.621 8.262,57.367c9.924,22.87 24.023,40.919 38.682,49.522c0.805,0.472 1.71,0.711 2.617,0.711c0.697,0 1.396,-0.141 2.055,-0.426c1.513,-0.655 2.623,-1.993 2.989,-3.602c1.859,-8.173 1.939,-17.815 0.331,-28.272c-9.725,-9.687 -18.648,-23.249 -25.549,-39.153z" fill="#1B003F" id="svg_239"/>
   </g>
   <path stroke="null" d="m333.572602,307.57904c-0.285707,-4.359455 -3.883246,-7.64934 -8.043134,-7.35189l-85.266215,6.127273l84.06302,-87.614135c2.955693,-3.07999 2.969773,-8.088138 0.032191,-11.18712s-7.715172,-3.112698 -10.669849,-0.033763l-84.942285,88.530768l2.943613,-96.585144c0.133798,-4.366841 -3.134762,-8.019591 -7.300683,-8.158812c-4.167953,-0.127632 -7.648773,3.28672 -7.781571,7.653561l-3.038172,99.701007l-28.55287,-47.192437c-2.232354,-3.689661 -6.893241,-4.782427 -10.413301,-2.441832c-3.51906,2.340578 -4.561298,7.228479 -2.328944,10.91814l35.235851,58.24032l-48.44992,50.499187c-2.955693,3.07999 -2.969773,8.089193 -0.032191,11.18712c1.474823,1.555813 3.413421,2.333192 5.35102,2.333192c1.923503,0 3.847022,-0.766828 5.318829,-2.300501l48.474064,-50.522399l62.208244,41.445932c1.254515,0.836447 2.65589,1.235151 4.040187,1.235151c2.494917,0 4.937531,-1.297385 6.375146,-3.66856c2.235369,-3.687551 1.196147,-8.576508 -2.321896,-10.920251l-52.463947,-34.953684l90.551853,-6.507003c4.156873,-0.29956 7.295667,-4.075721 7.01096,-8.434121z" fill="#A53C29" id="svg_240"/>
  </g>
 </g>
</svg>