<svg height="100%" width="100%" version="1.1" viewBox="0 0 500 500" xmlns="http://www.w3.org/2000/svg">
 <defs>
  <linearGradient y2="0.658003" x2="0.939474" y1="0.29745" x1="0.166314" id="SVGID_1_">
   <stop stop-color="#FFFFFF" stop-opacity="0.2" offset="0"/>
   <stop stop-color="#FFFFFF" stop-opacity="0" offset="1"/>
  </linearGradient>
 </defs>
 <g>
  <title>background</title>
  <rect fill="none" id="canvas_background" height="502" width="502" y="-1" x="-1"/>
 </g>
 <g>
  <title>Layer 1</title>
  <path id="svg_7" fill="url(#SVGID_1_)"/>
  <g id="svg_8"/>
  <g id="svg_9"/>
  <g id="svg_10"/>
  <g id="svg_11"/>
  <g id="svg_12"/>
  <g id="svg_13"/>
  <g id="svg_14"/>
  <g id="svg_15"/>
  <g id="svg_16"/>
  <g id="svg_17"/>
  <g id="svg_18"/>
  <g id="svg_19"/>
  <g id="svg_20"/>
  <g id="svg_21"/>
  <g id="svg_22"/>
  <metadata transform="matrix(0.0979001478389172,0,0,0.0979001478389172,0,0) " id="svg_74">image/svg+xml</metadata>
  <metadata transform="matrix(0.0979001478389172,0,0,0.0979001478389172,0,0) " id="svg_130">image/svg+xml</metadata>
  <metadata stroke="null" transform="translate(-58.339107513427734,-94.69953918457031) translate(-301.4187316894531,-332.4558410644531) translate(2147.008544921875,0) translate(0,2147.008544921875) matrix(0.5142348169488586,0,0,0.49630652373156187,-1761.6418796454275,-1721.2622640649024) " id="svg_127">image/svg+xml</metadata>
  <metadata stroke="null" transform="translate(-58.339107513427734,-94.69953918457031) translate(-301.4187316894531,-332.4558410644531) translate(2147.008544921875,0) translate(0,2147.008544921875) matrix(0.5142348169488586,0,0,0.49630652373156187,-1761.6418796454275,-1721.2622640649024) " id="svg_126">image/svg+xml</metadata>
  <g transform="matrix(1.0917088459674629,0,0,0.9375454928718354,-1956.6321840761432,-1668.7975713982457) " stroke="null" id="svg_106">
   <g stroke="null" id="svg_122" transform="matrix(0.8348303186207112,0,0,0.8514699177866906,-1117.7333626034203,-1445.782840609819) ">
    <path stroke="null" d="m3903.237169,4038.316417c-35.297,0 -64,28.711 -64,64c0,8.836 7.156,16 16,16s16,-7.164 16,-16c0,-17.649 14.359,-32 32,-32s32,14.351 32,32s-14.359,32 -32,32l-366.734,0c-8.844,0 -16,7.164 -16,16c0,8.836 7.156,16 16,16l366.734,0c35.297,0 64,-28.711 64,-64s-28.703,-64 -64,-64z" fill="#9ACEE6" id="svg_125"/>
    <path stroke="null" d="m3535.237169,4102.316417l208,0c35.297,0 64,-28.711 64,-64s-28.703,-64 -64,-64s-64,28.711 -64,64c0,8.836 7.156,16 16,16s16,-7.164 16,-16c0,-17.649 14.359,-32 32,-32s32,14.351 32,32s-14.359,32 -32,32l-208,0c-8.844,0 -16,7.164 -16,16s7.156,16 16,16z" fill="#9ACEE6" id="svg_124"/>
    <path stroke="null" d="m3743.237169,4198.316417l-208,0c-8.844,0 -16,7.164 -16,16s7.156,16 16,16l208,0c17.641,0 32,14.351 32,32s-14.359,32 -32,32s-32,-14.351 -32,-32c0,-8.836 -7.156,-16 -16,-16s-16,7.164 -16,16c0,35.289 28.703,64 64,64s64,-28.711 64,-64s-28.703,-64 -64,-64z" fill="#9ACEE6" id="svg_123"/>
   </g>
   <g stroke="null" id="svg_121" transform="matrix(0.8348303186207112,0,0,0.8514699177866906,-1117.7333626034203,-1445.782840609819) "/>
   <g stroke="null" id="svg_120" transform="matrix(0.8348303186207112,0,0,0.8514699177866906,-1117.7333626034203,-1445.782840609819) "/>
   <g stroke="null" id="svg_119" transform="matrix(0.8348303186207112,0,0,0.8514699177866906,-1117.7333626034203,-1445.782840609819) "/>
   <g stroke="null" id="svg_118" transform="matrix(0.8348303186207112,0,0,0.8514699177866906,-1117.7333626034203,-1445.782840609819) "/>
   <g stroke="null" id="svg_117" transform="matrix(0.8348303186207112,0,0,0.8514699177866906,-1117.7333626034203,-1445.782840609819) "/>
   <g stroke="null" id="svg_116" transform="matrix(0.8348303186207112,0,0,0.8514699177866906,-1117.7333626034203,-1445.782840609819) "/>
   <g stroke="null" id="svg_115" transform="matrix(0.8348303186207112,0,0,0.8514699177866906,-1117.7333626034203,-1445.782840609819) "/>
   <g stroke="null" id="svg_114" transform="matrix(0.8348303186207112,0,0,0.8514699177866906,-1117.7333626034203,-1445.782840609819) "/>
   <g stroke="null" id="svg_113" transform="matrix(0.8348303186207112,0,0,0.8514699177866906,-1117.7333626034203,-1445.782840609819) "/>
   <g stroke="null" id="svg_112" transform="matrix(0.8348303186207112,0,0,0.8514699177866906,-1117.7333626034203,-1445.782840609819) "/>
   <g stroke="null" id="svg_111" transform="matrix(0.8348303186207112,0,0,0.8514699177866906,-1117.7333626034203,-1445.782840609819) "/>
   <g stroke="null" id="svg_110" transform="matrix(0.8348303186207112,0,0,0.8514699177866906,-1117.7333626034203,-1445.782840609819) "/>
   <g stroke="null" id="svg_109" transform="matrix(0.8348303186207112,0,0,0.8514699177866906,-1117.7333626034203,-1445.782840609819) "/>
   <g stroke="null" id="svg_108" transform="matrix(0.8348303186207112,0,0,0.8514699177866906,-1117.7333626034203,-1445.782840609819) "/>
   <g stroke="null" id="svg_107" transform="matrix(0.8348303186207112,0,0,0.8514699177866906,-1117.7333626034203,-1445.782840609819) "/>
  </g>
  <g stroke="null" id="svg_135">
   <path transform="rotate(52.72610092163086 430.3332214355469,70.33386230468749) " stroke="null" id="svg_1" fill="#303C42" d="m401.330704,113.667987c26.157518,0 57.752371,-21.497418 57.752371,-48.189803c0,-6.858069 -2.350309,-13.050389 -6.870341,-18.465242c4.5097,-3.80812 9.160005,-7.124673 13.805369,-9.750594c2.367828,-1.338098 3.322417,-4.591681 2.143219,-7.267877c-1.188631,-2.681782 -4.06183,-3.755815 -6.429658,-2.422795c-5.895987,3.332803 -11.772657,7.750811 -17.430109,12.78277c-3.033569,-1.631108 -6.254463,-2.520804 -9.673012,-2.520804c-23.61135,0.000508 -42.628547,35.716802 -42.628547,65.286479c0,5.813489 4.183568,10.547867 9.330708,10.547867z"/>
   <path transform="rotate(52.72610092163086 423.1205139160157,69.80168151855469) " stroke="null" id="svg_2" fill="#7CB342" d="m432.20797,42.718022c0.354433,0 0.688651,0.091407 1.035897,0.121876c-9.903461,10.578844 -18.502842,22.96704 -23.992736,35.372502c-1.179197,2.676703 -0.224609,5.929779 2.143219,7.268385c0.692694,0.385941 1.422674,0.571294 2.143219,0.571294c1.750154,0 3.444155,-1.094853 4.286439,-2.994089c5.502921,-12.444056 14.404626,-24.905378 24.586602,-35.132812c0.01168,0.013203 0.024707,0.021836 0.036387,0.035039c3.115776,3.528313 4.631887,7.310534 4.631887,11.568579c0,19.688573 -26.71904,37.218924 -47.916741,37.356543c0.122187,-23.957283 15.629194,-54.167317 33.045827,-54.167317z"/>
  </g>
  <g transform="rotate(-19.730602264404297 341.8332214355468,122.83386993408193) " stroke="null" id="svg_138">
   <path stroke="null" id="svg_136" fill="#303C42" d="m295.050849,188.667992c42.193259,0 93.157185,-32.659337 93.157185,-73.21098c0,-10.418924 -3.791154,-19.826429 -11.082171,-28.05279c7.274351,-5.785377 14.775504,-10.823955 22.268685,-14.813311c3.819414,-2.032866 5.359207,-6.97578 3.45711,-11.041514c-1.917316,-4.07422 -6.551916,-5.705913 -10.37133,-3.680762c-9.510494,5.063266 -18.989828,11.775198 -28.115555,19.419857c-4.893284,-2.478015 -10.08873,-3.829659 -15.603005,-3.829659c-38.086176,0.000771 -68.761774,54.261728 -68.761774,99.184613c0,8.831976 6.748284,16.024545 15.050855,16.024545z"/>
   <path stroke="null" id="svg_137" fill="#7CB342" d="m348.762491,89.917724c0.571718,0 1.110827,0.138868 1.670949,0.185158c-15.974731,16.071605 -29.845921,34.892018 -38.701369,53.73866c-1.902098,4.066505 -0.362304,9.008648 3.45711,11.042286c1.117347,0.586331 2.294837,0.867923 3.45711,0.867923c2.823076,0 5.555577,-1.663325 6.91422,-4.548684c8.87646,-18.905276 23.235312,-37.836781 39.659301,-53.374519c0.018839,0.020059 0.039853,0.033174 0.058694,0.053233c5.025887,5.360289 7.471443,11.10632 7.471443,17.575233c0,29.911302 -43.099019,56.543786 -77.29187,56.752859c0.197094,-36.396417 25.210597,-82.292147 53.304413,-82.292147z"/>
  </g>
  <g stroke="null" transform="rotate(78.19464874267578 445.3331909179687,161.33389282226562) " id="svg_141">
   <path stroke="null" id="svg_139" fill="#303C42" d="m429.66149,188.633146c14.134381,0 31.206861,-13.542757 31.206861,-30.358196c0,-4.320387 -1.270004,-8.221372 -3.712432,-11.632574c2.436845,-2.399007 4.949667,-4.48834 7.459819,-6.142595c1.279471,-0.842963 1.795289,-2.892628 1.158102,-4.578555c-0.642284,-1.689445 -2.194836,-2.366055 -3.474307,-1.526291c-3.185934,2.099571 -6.36143,4.88279 -9.41847,8.052779c-1.639209,-1.027551 -3.379639,-1.588034 -5.226874,-1.588034c-12.758543,0.000319 -23.034607,22.500562 -23.034607,41.128612c0,3.662332 2.260617,6.644854 5.041908,6.644854z"/>
   <path stroke="null" id="svg_140" fill="#7CB342" d="m447.654433,147.684643c0.19152,0 0.372117,0.057584 0.559753,0.076778c-5.351398,6.664369 -9.998129,14.468578 -12.964628,22.283664c-0.637187,1.686246 -0.121369,3.735591 1.158103,4.578874c0.374302,0.243131 0.76875,0.359899 1.158102,0.359899c0.945707,0 1.861071,-0.689727 2.316205,-1.88619c2.973538,-7.839399 7.783631,-15.689675 13.285527,-22.132667c0.006311,0.008318 0.013351,0.013757 0.019662,0.022074c1.683629,2.222736 2.50287,4.605427 2.50287,7.287874c0,12.403238 -14.437804,23.446857 -25.892117,23.533553c0.066025,-15.092403 8.445335,-34.123859 17.856524,-34.123859z"/>
  </g>
 </g>
</svg>